<svg width="14" height="14" viewBox="0 0 14 14" fill="none" xmlns="http://www.w3.org/2000/svg">
<path d="M8.52062 12.8117C8.54341 12.8685 8.58303 12.917 8.63417 12.9506C8.6853 12.9843 8.7455 13.0015 8.80669 12.9999C8.86787 12.9983 8.92712 12.9781 8.97646 12.9419C9.02581 12.9057 9.0629 12.8552 9.08275 12.7973L12.9823 1.39865C13.0015 1.34549 13.0052 1.28797 12.9929 1.2328C12.9806 1.17764 12.9528 1.12712 12.9128 1.08716C12.8729 1.04719 12.8224 1.01943 12.7672 1.00713C12.712 0.994832 12.6545 0.998496 12.6013 1.0177L1.20266 4.91725C1.14476 4.9371 1.09433 4.97419 1.05812 5.02354C1.02191 5.07288 1.00167 5.13213 1.0001 5.19331C0.998531 5.2545 1.01572 5.3147 1.04935 5.36583C1.08299 5.41697 1.13146 5.45659 1.18826 5.47938L5.94571 7.38716C6.09611 7.44738 6.23275 7.53742 6.34741 7.65187C6.46206 7.76632 6.55235 7.9028 6.61284 8.05309L8.52062 12.8117Z" stroke="#808080" stroke-width="1.5" stroke-linecap="round" stroke-linejoin="round"/>
<path d="M13 1L6.49805 7.49805" stroke="#808080" stroke-width="1.5" stroke-linecap="round" stroke-linejoin="round"/>
</svg>
