<svg width="97" height="15" viewBox="0 0 97 15" fill="none" xmlns="http://www.w3.org/2000/svg">
<path d="M4.896 11.6933C3.648 11.6933 2.6 11.2693 1.752 10.4213C0.904 9.56526 0.48 8.50126 0.48 7.22926C0.48 5.94926 0.904 4.88526 1.752 4.03726C2.608 3.18126 3.656 2.75326 4.896 2.75326C6.136 2.75326 7.18 3.18126 8.028 4.03726C8.876 4.88526 9.3 5.94926 9.3 7.22926C9.3 8.50926 8.876 9.57326 8.028 10.4213C7.18 11.2693 6.136 11.6933 4.896 11.6933ZM4.896 11.1053C5.952 11.1053 6.832 10.7373 7.536 10.0013C8.248 9.26526 8.604 8.34126 8.604 7.22926C8.604 6.11726 8.248 5.19326 7.536 4.45726C6.832 3.72126 5.952 3.35326 4.896 3.35326C3.832 3.35326 2.944 3.72126 2.232 4.45726C1.528 5.19326 1.176 6.11726 1.176 7.22926C1.176 8.34126 1.528 9.26526 2.232 10.0013C2.944 10.7373 3.832 11.1053 4.896 11.1053ZM4.932 9.89326C4.172 9.89326 3.552 9.64126 3.072 9.13726C2.6 8.62526 2.364 7.97726 2.364 7.19326C2.364 6.40126 2.6 5.74926 3.072 5.23726C3.544 4.72526 4.168 4.46926 4.944 4.46926C5.592 4.46926 6.116 4.64526 6.516 4.99726C6.916 5.34926 7.148 5.80526 7.212 6.36526H5.916C5.876 6.13326 5.768 5.94526 5.592 5.80126C5.424 5.65726 5.204 5.58526 4.932 5.58526C4.54 5.58526 4.24 5.73726 4.032 6.04126C3.824 6.33726 3.72 6.72126 3.72 7.19326C3.72 7.65726 3.832 8.04126 4.056 8.34526C4.28 8.64126 4.576 8.78926 4.944 8.78926C5.24 8.78926 5.476 8.70926 5.652 8.54926C5.828 8.38126 5.932 8.16926 5.964 7.91326H7.26C7.22 8.46526 7.008 8.92926 6.624 9.30526C6.224 9.69726 5.66 9.89326 4.932 9.89326Z" fill="black"/>
<path d="M12.0741 7.87633C12.1328 8.11403 12.1832 8.2923 12.2167 8.41114C12.2503 8.54187 12.2838 8.67261 12.3342 8.80334C12.4013 9.01726 12.4684 9.19553 12.5523 9.36192C12.6362 9.5283 12.7285 9.6828 12.8292 9.82542C13.0641 10.1701 13.341 10.4434 13.6598 10.6336C13.9786 10.8356 14.2974 10.9307 14.6162 10.9307C14.8092 10.9307 14.9938 10.895 15.1616 10.8118C15.3294 10.7405 15.4804 10.6336 15.6062 10.491C15.7321 10.3483 15.8328 10.182 15.8999 9.9918C15.967 9.80165 16.0089 9.59961 16.0089 9.3738C16.0089 9.13611 15.9586 8.9103 15.8747 8.70826C15.7908 8.51811 15.665 8.35172 15.5056 8.22099C15.43 8.17345 15.3545 8.11403 15.279 8.06649C15.1951 8.01895 15.1028 7.9833 14.9938 7.93576C14.8847 7.9001 14.7589 7.85256 14.6078 7.80503C14.4568 7.75749 14.2806 7.70995 14.0793 7.65053C13.6933 7.55545 13.3829 7.46037 13.148 7.36529C12.9131 7.27022 12.7369 7.17514 12.6278 7.06818C12.5607 7.03252 12.502 6.98498 12.4433 6.91368C12.3761 6.84237 12.309 6.77106 12.2335 6.67598C12.0825 6.45017 11.9734 6.22437 11.9063 5.98667C11.8392 5.74898 11.8056 5.48752 11.8056 5.17852C11.8056 4.84574 11.8476 4.53674 11.9399 4.25151C12.0238 3.96628 12.1496 3.72859 12.309 3.51466C12.46 3.30074 12.6446 3.14624 12.8627 3.02739C13.0809 2.90855 13.3158 2.84912 13.5675 2.84912C13.8528 2.84912 14.138 2.9442 14.44 3.11058C14.5239 3.17001 14.6078 3.22943 14.6833 3.27697C14.7505 3.32451 14.826 3.38393 14.8931 3.45524C14.9602 3.52655 15.0273 3.59786 15.1028 3.69293C15.17 3.78801 15.2539 3.90686 15.3545 4.0257C15.4972 3.68105 15.5895 3.28885 15.623 2.84912H15.9502L16.0006 5.93913H15.665C15.6314 5.77275 15.5978 5.63013 15.5727 5.51129C15.5391 5.39244 15.5139 5.27359 15.4804 5.17852C15.4468 5.08344 15.4049 4.98836 15.3629 4.89328C15.321 4.79821 15.2706 4.70313 15.2203 4.58428C14.7672 3.78801 14.2135 3.38393 13.5591 3.38393C13.3913 3.38393 13.2319 3.41959 13.0893 3.49089C12.9383 3.5622 12.8124 3.64539 12.7117 3.76424C12.6027 3.88309 12.5188 4.0257 12.46 4.19209C12.3929 4.35847 12.3677 4.52486 12.3677 4.71501C12.3677 5.3449 12.6278 5.78463 13.1564 6.02233C13.299 6.09363 13.4584 6.16494 13.643 6.22437C13.8276 6.28379 14.0625 6.34321 14.3478 6.40264C14.4988 6.45017 14.633 6.48583 14.7337 6.5096C14.8344 6.53337 14.9267 6.56902 15.0106 6.59279C15.0945 6.62844 15.17 6.6641 15.2539 6.71164C15.3294 6.75918 15.43 6.80671 15.5475 6.86614C15.7237 6.99687 15.8579 7.10383 15.9502 7.18702C16.0341 7.2821 16.1264 7.38906 16.2187 7.50791C16.4956 7.91199 16.6382 8.42303 16.6382 9.01726C16.6382 9.3738 16.5878 9.70657 16.4872 10.0037C16.3865 10.3127 16.2439 10.5742 16.0677 10.7881C15.8915 11.0139 15.6817 11.1922 15.4384 11.311C15.1867 11.4298 14.9267 11.4893 14.6414 11.4893C14.3897 11.4893 14.1464 11.4417 13.9115 11.3348C13.6682 11.2397 13.4333 11.0852 13.1983 10.8832C13.1312 10.8356 13.0641 10.7762 13.0138 10.7287C12.9634 10.6811 12.9047 10.6217 12.8544 10.5623C12.804 10.5028 12.7453 10.4315 12.6866 10.3602C12.6194 10.2889 12.5523 10.1938 12.4768 10.075C12.4181 10.1701 12.3677 10.2652 12.3342 10.3602C12.2922 10.4553 12.2587 10.5623 12.2335 10.6692C12.1999 10.7762 12.1748 10.895 12.158 11.0258C12.1328 11.1565 12.116 11.311 12.0993 11.4893H11.7637V7.87633H12.0741Z" fill="black"/>
<path d="M20.0236 2.84912C20.4767 2.87289 20.8626 2.96797 21.1898 3.15812C21.517 3.34828 21.8191 3.64539 22.0959 4.03759C22.3812 4.46544 22.5909 4.94082 22.7252 5.46375C22.8594 5.99856 22.9349 6.61656 22.9349 7.31775C22.9349 7.91199 22.8594 8.45868 22.7168 8.95784C22.5742 9.46888 22.3812 9.90861 22.1295 10.277C21.8778 10.6573 21.5758 10.9426 21.2318 11.1565C20.8878 11.3704 20.5186 11.4774 20.1243 11.4774C19.7216 11.4774 19.3524 11.3704 19.0085 11.1565C18.6645 10.9426 18.3708 10.6336 18.1191 10.2533C17.8674 9.87296 17.6661 9.43322 17.5235 8.9103C17.3724 8.39926 17.3053 7.84068 17.3053 7.24645C17.3053 6.41452 17.4144 5.66579 17.6409 5.02401C17.859 4.38224 18.1946 3.85932 18.6309 3.45524C18.8323 3.26508 19.0504 3.12247 19.2937 3.01551C19.5286 2.90855 19.7719 2.84912 20.0236 2.84912ZM20.0824 3.43147C19.4951 3.43147 19.0504 3.75236 18.74 4.38224C18.4296 5.01213 18.2785 5.91536 18.2785 7.09195C18.2785 8.35172 18.4296 9.30249 18.7484 9.94427C19.0588 10.5979 19.5202 10.9188 20.1243 10.9188C20.7284 10.9188 21.1898 10.5979 21.5002 9.95615C21.8107 9.31438 21.9701 8.37549 21.9701 7.13948C21.9701 5.92725 21.8023 5.01213 21.4835 4.38224C21.1647 3.75236 20.6948 3.43147 20.0824 3.43147Z" fill="black"/>
<path d="M23.3817 3.01551H26.3769V3.55032H26.2007C26.0161 3.55032 25.8651 3.57409 25.7476 3.60974C25.6302 3.64539 25.5295 3.70482 25.4624 3.78801C25.3952 3.8712 25.3449 3.97816 25.3197 4.12078C25.2862 4.2634 25.2778 4.44167 25.2778 4.65559V8.54187C25.2778 9.29061 25.412 9.86107 25.6805 10.2414C25.949 10.6336 26.3433 10.8237 26.8551 10.8237C27.3753 10.8237 27.7696 10.6336 28.0381 10.2414C28.3065 9.84919 28.4492 9.27872 28.4492 8.52999V4.78632C28.4492 4.40601 28.3653 4.09701 28.2059 3.88309C28.0381 3.66916 27.8115 3.55032 27.5263 3.55032H27.3501V3.01551H29.8671V3.55032H29.716C29.5986 3.55032 29.4811 3.58597 29.3804 3.63351C29.2714 3.69293 29.1791 3.76424 29.0952 3.85932C29.0113 3.9544 28.9526 4.06136 28.9106 4.1802C28.8603 4.29905 28.8435 4.42978 28.8435 4.5724V8.48245C28.8435 8.93407 28.8099 9.32626 28.7428 9.6828C28.6757 10.0393 28.5247 10.3721 28.3065 10.6811C27.9122 11.2278 27.3836 11.4893 26.7125 11.4893C25.9406 11.4893 25.3701 11.2159 24.9841 10.6692C24.8919 10.5504 24.8163 10.4197 24.7576 10.2889C24.6905 10.1582 24.6402 10.0156 24.6066 9.86107C24.5647 9.70657 24.5311 9.5283 24.5143 9.33815C24.4975 9.14799 24.4808 8.93407 24.4808 8.67261V4.65559C24.4808 4.44167 24.464 4.2634 24.4388 4.12078C24.4052 3.97816 24.3549 3.8712 24.2878 3.78801C24.2207 3.70482 24.1284 3.64539 24.0109 3.60974C23.8935 3.57409 23.7424 3.55032 23.5579 3.55032H23.3817V3.01551Z" fill="black"/>
<path d="M33.0049 3.01551V3.55032H32.5938C32.2079 3.55032 32.0149 3.7167 32.0149 4.03759C32.0149 4.1089 32.0149 4.1802 32.0317 4.27528C32.0485 4.37036 32.0737 4.47732 32.1072 4.58428L33.6174 10.1582L34.9765 5.07155C35.0521 4.76255 35.094 4.51297 35.094 4.29905C35.094 4.04947 35.0185 3.85932 34.8675 3.74047C34.7165 3.62162 34.4899 3.55032 34.1711 3.55032H34.0788V3.01551H36.6294V3.55032H36.5035C36.235 3.55032 36.0253 3.64539 35.8575 3.82366C35.6897 4.00193 35.5554 4.28717 35.4548 4.66748L33.6509 11.4298H33.1559L31.2011 4.27528C31.1508 4.13267 31.1088 4.01382 31.0585 3.91874C31.0081 3.82366 30.9494 3.75236 30.8739 3.70482C30.7984 3.65728 30.7061 3.60974 30.6054 3.58597C30.5047 3.5622 30.3789 3.55032 30.2279 3.55032H30.102V3.01551H33.0049Z" fill="black"/>
<path d="M36.9398 3.01551H42.4939L42.5359 6.16494H42.1416C42.108 5.23794 41.957 4.56051 41.6801 4.13267C41.5459 3.93063 41.3781 3.78801 41.1767 3.69293C40.9754 3.59786 40.7153 3.55032 40.4049 3.55032H39.1464C39.0625 3.55032 39.0038 3.58597 38.9534 3.65728C38.9031 3.72859 38.8779 3.82366 38.8779 3.94251V6.86614H39.7085C39.9854 6.86614 40.1783 6.77106 40.2874 6.58091C40.3965 6.39075 40.4552 6.03421 40.4552 5.53506V5.0359H40.8663V9.26684H40.472C40.472 9.01726 40.4636 8.80334 40.4552 8.63695C40.4468 8.47057 40.4384 8.31607 40.4216 8.19722C40.4049 8.07837 40.3797 7.9833 40.3545 7.9001C40.321 7.8288 40.2874 7.75749 40.2455 7.68618C40.128 7.51979 39.9602 7.4366 39.7505 7.4366H38.8779V10.3365C38.8779 10.6336 38.9702 10.7762 39.1715 10.7762H40.6985C41.4033 10.7762 41.8899 10.3365 42.1416 9.44511C42.2003 9.23118 42.2422 9.00538 42.2674 8.76768C42.2926 8.52999 42.3094 8.19722 42.3178 7.78126H42.7121V11.3229H36.9566V10.7762H37.158C37.3426 10.7762 37.4936 10.7643 37.611 10.7287C37.7285 10.7049 37.8208 10.6455 37.8879 10.5623C37.955 10.4791 38.0054 10.3721 38.0389 10.2295C38.0641 10.0869 38.0809 9.90861 38.0809 9.6828V4.65559C38.0809 4.44167 38.0641 4.2634 38.0389 4.12078C38.0054 3.97816 37.955 3.8712 37.8879 3.78801C37.8208 3.70482 37.7285 3.64539 37.611 3.60974C37.4936 3.57409 37.3426 3.55032 37.158 3.55032H36.9398V3.01551Z" fill="black"/>
<path d="M44.9878 3.00362L48.2683 9.45699H48.285V4.71501C48.285 4.34659 48.1928 4.06136 48.025 3.85932C47.8572 3.65728 47.6222 3.55032 47.3202 3.55032H47.2028V3.01551H49.6106V3.55032H49.5351C49.3002 3.55032 49.0989 3.64539 48.9311 3.83555C48.7633 4.0257 48.6878 4.23963 48.6878 4.50109V11.3823H48.3102L44.7194 4.32282H44.7026V9.78976C44.7026 9.93238 44.7277 10.0512 44.7781 10.1701C44.8284 10.2889 44.9039 10.3959 44.9962 10.491C45.0885 10.586 45.1976 10.6573 45.3234 10.7049C45.4409 10.7524 45.5751 10.7762 45.7094 10.7762H45.8855V11.3229H43.226V10.7762H43.3602C43.486 10.7762 43.6035 10.7524 43.721 10.693C43.8384 10.6455 43.9391 10.5742 44.023 10.4791C44.1069 10.384 44.174 10.277 44.2243 10.1582C44.2747 10.0393 44.2999 9.90861 44.2999 9.766V4.67936C44.2999 4.32282 44.2076 4.04947 44.0314 3.84743C43.8468 3.65728 43.5951 3.55032 43.2595 3.55032H43.184V3.00362H44.9878Z" fill="black"/>
<path d="M49.9295 3.00362H53.1764V3.55032H52.8912C52.7066 3.55032 52.5639 3.57409 52.4465 3.60974C52.329 3.64539 52.2284 3.70482 52.1612 3.78801C52.0941 3.8712 52.0438 3.97816 52.0186 4.12078C51.9851 4.2634 51.9767 4.44167 51.9767 4.65559V9.6828C51.9767 9.89673 51.9851 10.075 52.0186 10.2176C52.0438 10.3602 52.0941 10.4791 52.1612 10.5623C52.2284 10.6455 52.329 10.7049 52.4465 10.7287C52.5639 10.7643 52.7234 10.7762 52.9079 10.7762H53.2016V11.3229H49.9547V10.7762H50.2483C50.4329 10.7762 50.5839 10.7643 50.7014 10.7287C50.8189 10.7049 50.9195 10.6455 50.9867 10.5623C51.0538 10.4791 51.1041 10.3602 51.1377 10.2176C51.1628 10.075 51.1796 9.89673 51.1796 9.6828V4.65559C51.1796 4.44167 51.1628 4.25151 51.1377 4.1089C51.1041 3.96628 51.0538 3.85932 50.9867 3.77612C50.9195 3.69293 50.8189 3.63351 50.7014 3.59786C50.5839 3.57409 50.4329 3.55032 50.2483 3.55032H49.9295V3.00362Z" fill="black"/>
<path d="M56.5596 6.90179C57.0713 6.90179 57.4489 6.77106 57.6838 6.49771C57.9187 6.23625 58.0446 5.79652 58.0446 5.20228C58.0446 4.97648 58.011 4.76255 57.9607 4.54863C57.9019 4.34659 57.8264 4.1802 57.7257 4.03759C57.6586 3.9544 57.5915 3.88309 57.5244 3.81178C57.4489 3.75236 57.365 3.70482 57.2643 3.66916C57.1636 3.63351 57.0462 3.60974 56.9119 3.58597C56.7777 3.5622 56.6267 3.55032 56.4421 3.55032H55.7374C55.4689 3.55032 55.343 3.69293 55.343 3.9544V6.90179H56.5596ZM56.5596 11.3229H53.4134V10.7762H53.6231C53.8077 10.7762 53.9587 10.7643 54.0762 10.7287C54.1936 10.7049 54.2859 10.6455 54.353 10.5623C54.4201 10.4791 54.4705 10.3602 54.504 10.2176C54.5292 10.075 54.546 9.89673 54.546 9.6828V4.65559C54.546 4.44167 54.5292 4.2634 54.504 4.12078C54.4705 3.97816 54.4201 3.8712 54.353 3.78801C54.2859 3.70482 54.1936 3.64539 54.0762 3.60974C53.9587 3.57409 53.8077 3.55032 53.6231 3.55032H53.405V3.01551H56.8532C57.1552 3.01551 57.4405 3.07493 57.709 3.18189C57.9691 3.28885 58.1956 3.43147 58.3886 3.62162C58.5815 3.81178 58.7325 4.03759 58.8416 4.29905C58.9507 4.56051 59.0094 4.83386 59.0094 5.14286C59.0094 5.51129 58.9339 5.84406 58.7997 6.12929C58.657 6.4264 58.4557 6.67598 58.1872 6.86614C58.053 6.96122 57.9271 7.04441 57.8013 7.09195C57.6754 7.13948 57.4992 7.18702 57.2643 7.23456V7.25833C57.6586 7.42472 57.9607 7.69806 58.162 8.07837C58.3634 8.45868 58.506 9.00538 58.5731 9.71846C58.6067 10.075 58.657 10.3246 58.7325 10.4672C58.7997 10.6217 58.9087 10.693 59.043 10.693C59.2191 10.693 59.345 10.5979 59.4289 10.384C59.5044 10.1701 59.5464 9.82542 59.5464 9.33815V9.19553C59.5464 9.13611 59.538 9.04103 59.538 8.89841H59.9155C59.9239 9.01726 59.9323 9.12422 59.9323 9.2193V9.50453C59.9323 10.1463 59.8232 10.6217 59.6219 10.9545C59.4205 11.2872 59.1185 11.4417 58.7325 11.4417C58.5144 11.4417 58.3298 11.3823 58.1704 11.2516C58.011 11.1327 57.8935 10.9545 57.818 10.7168C57.7845 10.6455 57.7677 10.586 57.7509 10.5266C57.7341 10.4791 57.7257 10.4078 57.7174 10.3365C57.709 10.2652 57.7006 10.1701 57.7006 10.0512C57.6922 9.94427 57.6838 9.78976 57.6838 9.59961C57.667 9.31438 57.6502 9.0648 57.6335 8.86276C57.6167 8.66072 57.5915 8.49434 57.558 8.35172C57.5244 8.2091 57.4741 8.10214 57.4237 8.00706C57.3734 7.91199 57.3063 7.8288 57.2308 7.75749C57.1636 7.70995 57.0965 7.66241 57.0294 7.61487C56.9623 7.57922 56.8784 7.54356 56.7861 7.51979C56.6854 7.49602 56.5763 7.48414 56.4505 7.47226C56.3162 7.46037 56.1652 7.44849 55.989 7.44849H55.343V9.6828C55.343 9.89673 55.3514 10.075 55.385 10.2176C55.4101 10.3602 55.4605 10.4791 55.536 10.5623C55.6031 10.6455 55.7038 10.7049 55.8213 10.7287C55.9387 10.7643 56.0897 10.7762 56.2743 10.7762H56.5596V11.3229Z" fill="black"/>
<path d="M62.8354 7.87633C62.8942 8.11403 62.9445 8.2923 62.9781 8.41114C63.0116 8.54187 63.0452 8.67261 63.0955 8.80334C63.1627 9.01726 63.2298 9.19553 63.3137 9.36192C63.3976 9.5283 63.4899 9.6828 63.5905 9.82542C63.8255 10.1701 64.1023 10.4434 64.4211 10.6336C64.7399 10.8356 65.0588 10.9307 65.3776 10.9307C65.5705 10.9307 65.7551 10.895 65.9229 10.8118C66.0907 10.7405 66.2417 10.6336 66.3676 10.491C66.4934 10.3483 66.5941 10.182 66.6612 9.9918C66.7283 9.80165 66.7703 9.59961 66.7703 9.3738C66.7703 9.13611 66.72 8.9103 66.6361 8.70826C66.5522 8.51811 66.4263 8.35172 66.2669 8.22099C66.1914 8.17345 66.1159 8.11403 66.0404 8.06649C65.9565 8.01895 65.8642 7.9833 65.7551 7.93576C65.646 7.9001 65.5202 7.85256 65.3692 7.80503C65.2182 7.75749 65.042 7.70995 64.8406 7.65053C64.4547 7.55545 64.1443 7.46037 63.9093 7.36529C63.6744 7.27022 63.4982 7.17514 63.3892 7.06818C63.3221 7.03252 63.2633 6.98498 63.2046 6.91368C63.1375 6.84237 63.0704 6.77106 62.9949 6.67598C62.8438 6.45017 62.7348 6.22437 62.6676 5.98667C62.6005 5.74898 62.567 5.48752 62.567 5.17852C62.567 4.84574 62.6089 4.53674 62.7012 4.25151C62.7851 3.96628 62.9109 3.72859 63.0704 3.51466C63.2214 3.30074 63.406 3.14624 63.6241 3.02739C63.8422 2.90855 64.0771 2.84912 64.3288 2.84912C64.6141 2.84912 64.8993 2.9442 65.2014 3.11058C65.2853 3.17001 65.3692 3.22943 65.4447 3.27697C65.5118 3.32451 65.5873 3.38393 65.6544 3.45524C65.7216 3.52655 65.7887 3.59786 65.8642 3.69293C65.9313 3.78801 66.0152 3.90686 66.1159 4.0257C66.2585 3.68105 66.3508 3.28885 66.3844 2.84912H66.7116L66.7619 5.93913H66.4263C66.3928 5.77275 66.3592 5.63013 66.334 5.51129C66.3005 5.39244 66.2753 5.27359 66.2417 5.17852C66.2082 5.08344 66.1662 4.98836 66.1243 4.89328C66.0823 4.79821 66.032 4.70313 65.9816 4.58428C65.5286 3.78801 64.9749 3.38393 64.3204 3.38393C64.1527 3.38393 63.9932 3.41959 63.8506 3.49089C63.6996 3.5622 63.5737 3.64539 63.4731 3.76424C63.364 3.88309 63.2801 4.0257 63.2214 4.19209C63.1543 4.35847 63.1291 4.52486 63.1291 4.71501C63.1291 5.3449 63.3892 5.78463 63.9177 6.02233C64.0604 6.09363 64.2198 6.16494 64.4044 6.22437C64.5889 6.28379 64.8238 6.34321 65.1091 6.40264C65.2601 6.45017 65.3944 6.48583 65.495 6.5096C65.5957 6.53337 65.688 6.56902 65.7719 6.59279C65.8558 6.62844 65.9313 6.6641 66.0152 6.71164C66.0907 6.75918 66.1914 6.80671 66.3089 6.86614C66.485 6.99687 66.6193 7.10383 66.7116 7.18702C66.7955 7.2821 66.8878 7.38906 66.98 7.50791C67.2569 7.91199 67.3995 8.42303 67.3995 9.01726C67.3995 9.3738 67.3492 9.70657 67.2485 10.0037C67.1478 10.3127 67.0052 10.5742 66.829 10.7881C66.6528 11.0139 66.4431 11.1922 66.1998 11.311C65.9481 11.4298 65.688 11.4893 65.4027 11.4893C65.1511 11.4893 64.9077 11.4417 64.6728 11.3348C64.4295 11.2397 64.1946 11.0852 63.9597 10.8832C63.8926 10.8356 63.8254 10.7762 63.7751 10.7287C63.7248 10.6811 63.666 10.6217 63.6157 10.5623C63.5654 10.5028 63.5066 10.4315 63.4479 10.3602C63.3808 10.2889 63.3137 10.1938 63.2382 10.075C63.1794 10.1701 63.1291 10.2652 63.0955 10.3602C63.0536 10.4553 63.02 10.5623 62.9949 10.6692C62.9613 10.7762 62.9361 10.895 62.9193 11.0258C62.8942 11.1565 62.8774 11.311 62.8606 11.4893H62.525V7.87633H62.8354Z" fill="black"/>
<path d="M72.5804 11.3229H69.1657V10.7762H69.5684C69.753 10.7762 69.904 10.7643 70.0215 10.7287C70.139 10.7049 70.2312 10.6455 70.2984 10.5623C70.3655 10.4791 70.4158 10.3602 70.4494 10.2176C70.4746 10.075 70.4913 9.89673 70.4913 9.6828V4.16832C70.4913 3.93063 70.4494 3.76424 70.3823 3.68105C70.3068 3.59786 70.1725 3.55032 69.9712 3.55032C69.795 3.55032 69.6523 3.5622 69.5517 3.58597C69.4426 3.60974 69.3503 3.63351 69.2664 3.68105C68.9812 3.82366 68.7714 4.1089 68.6288 4.52486C68.5281 4.81009 68.4526 5.10721 68.4023 5.43998C68.3519 5.77275 68.3184 6.1174 68.3184 6.47394H67.9156V3.00362H73.8305V6.48583H73.4362C73.4278 6.34321 73.4194 6.21248 73.411 6.09363C73.4026 5.98667 73.3942 5.8916 73.3858 5.79652C73.3775 5.70144 73.3691 5.61825 73.3523 5.52317C73.3355 5.43998 73.3271 5.3449 73.3103 5.23794C73.26 4.98836 73.2097 4.77444 73.1509 4.59617C73.0838 4.4179 73.0083 4.25151 72.9244 4.1089C72.7902 3.90686 72.6391 3.76424 72.4797 3.68105C72.3119 3.59786 72.0938 3.55032 71.8169 3.55032C71.5988 3.55032 71.4646 3.58597 71.3974 3.64539C71.3303 3.7167 71.2884 3.84743 71.2884 4.03759V9.6828C71.2884 9.89673 71.2968 10.075 71.3303 10.2176C71.3555 10.3602 71.4058 10.4791 71.4729 10.5623C71.5401 10.6455 71.6407 10.7049 71.7582 10.7287C71.8757 10.7643 72.0351 10.7762 72.2197 10.7762H72.5804V11.3229Z" fill="black"/>
<path d="M74.143 3.01551H77.1382V3.55032H76.962C76.7774 3.55032 76.6264 3.57409 76.509 3.60974C76.3915 3.64539 76.2908 3.70482 76.2237 3.78801C76.1566 3.8712 76.1063 3.97816 76.0811 4.12078C76.0475 4.2634 76.0391 4.44167 76.0391 4.65559V8.54187C76.0391 9.29061 76.1734 9.86107 76.4418 10.2414C76.7103 10.6336 77.1047 10.8237 77.6164 10.8237C78.1366 10.8237 78.5309 10.6336 78.7994 10.2414C79.0679 9.84919 79.2105 9.27872 79.2105 8.52999V4.78632C79.2105 4.40601 79.1266 4.09701 78.9672 3.88309C78.7994 3.66916 78.5729 3.55032 78.2876 3.55032H78.1114V3.01551H80.6284V3.55032H80.4774C80.3599 3.55032 80.2425 3.58597 80.1418 3.63351C80.0327 3.69293 79.9404 3.76424 79.8565 3.85932C79.7726 3.9544 79.7139 4.06136 79.672 4.1802C79.6216 4.29905 79.6048 4.42978 79.6048 4.5724V8.48245C79.6048 8.93407 79.5713 9.32626 79.5042 9.6828C79.437 10.0393 79.286 10.3721 79.0679 10.6811C78.6736 11.2278 78.145 11.4893 77.4738 11.4893C76.7019 11.4893 76.1314 11.2159 75.7455 10.6692C75.6532 10.5504 75.5777 10.4197 75.519 10.2889C75.4518 10.1582 75.4015 10.0156 75.3679 9.86107C75.326 9.70657 75.2924 9.5283 75.2757 9.33815C75.2589 9.14799 75.2421 8.93407 75.2421 8.67261V4.65559C75.2421 4.44167 75.2253 4.2634 75.2002 4.12078C75.1666 3.97816 75.1163 3.8712 75.0491 3.78801C74.982 3.70482 74.8897 3.64539 74.7723 3.60974C74.6548 3.57409 74.5038 3.55032 74.3192 3.55032H74.143V3.01551Z" fill="black"/>
<path d="M83.1454 3.58597C82.9692 3.58597 82.8853 3.69293 82.8853 3.88309V10.0988C82.8853 10.3602 82.9021 10.5266 82.9441 10.6217C82.9776 10.7168 83.0531 10.7524 83.1706 10.7524H84.2109C84.857 10.7524 85.352 10.4672 85.6959 9.88484C86.0315 9.30249 86.2077 8.45868 86.2077 7.34152C86.2077 5.57071 85.8554 4.4179 85.1506 3.89497C85.0667 3.84743 84.9912 3.79989 84.9073 3.75236C84.8234 3.7167 84.7311 3.68105 84.6304 3.65728C84.5298 3.63351 84.4039 3.62162 84.2697 3.60974C84.1354 3.59786 83.9676 3.58597 83.7831 3.58597H83.1454ZM80.9389 10.7762H81.1654C81.35 10.7762 81.501 10.7643 81.6185 10.7287C81.7359 10.7049 81.8282 10.6455 81.8953 10.5623C81.9624 10.4791 82.0128 10.3602 82.0464 10.2176C82.0715 10.075 82.0883 9.89673 82.0883 9.6828V4.65559C82.0883 4.44167 82.0715 4.2634 82.0464 4.12078C82.0128 3.97816 81.9624 3.8712 81.8953 3.78801C81.8282 3.70482 81.7359 3.64539 81.6185 3.60974C81.501 3.57409 81.35 3.55032 81.1654 3.55032H80.9221V3.00362H84.0851C84.5465 3.00362 84.966 3.11058 85.3436 3.31262C85.7211 3.51466 86.0483 3.79989 86.3168 4.1802C86.5853 4.56051 86.7866 5.01213 86.9377 5.53506C87.0887 6.05798 87.1642 6.64033 87.1642 7.2821C87.1642 7.88822 87.0887 8.43491 86.946 8.93407C86.8034 9.43322 86.6021 9.84919 86.3504 10.2057C86.0987 10.5623 85.7882 10.8475 85.4275 11.0377C85.0667 11.2278 84.6724 11.3229 84.2361 11.3229H80.9389V10.7762Z" fill="black"/>
<path d="M87.6508 3.00362H90.8977V3.55032H90.6125C90.4279 3.55032 90.2853 3.57409 90.1678 3.60974C90.0504 3.64539 89.9497 3.70482 89.8826 3.78801C89.8154 3.8712 89.7651 3.97816 89.7399 4.12078C89.7064 4.2634 89.698 4.44167 89.698 4.65559V9.6828C89.698 9.89673 89.7064 10.075 89.7399 10.2176C89.7651 10.3602 89.8154 10.4791 89.8826 10.5623C89.9497 10.6455 90.0504 10.7049 90.1678 10.7287C90.2853 10.7643 90.4447 10.7762 90.6293 10.7762H90.9229V11.3229H87.676V10.7762H87.9697C88.1542 10.7762 88.3053 10.7643 88.4227 10.7287C88.5402 10.7049 88.6409 10.6455 88.708 10.5623C88.7751 10.4791 88.8254 10.3602 88.859 10.2176C88.8842 10.075 88.9009 9.89673 88.9009 9.6828V4.65559C88.9009 4.44167 88.8842 4.25151 88.859 4.1089C88.8254 3.96628 88.7751 3.85932 88.708 3.77612C88.6409 3.69293 88.5402 3.63351 88.4227 3.59786C88.3053 3.57409 88.1542 3.55032 87.9697 3.55032H87.6508V3.00362Z" fill="black"/>
<path d="M94.0711 2.84912C94.5242 2.87289 94.9101 2.96797 95.2373 3.15812C95.5645 3.34828 95.8666 3.64539 96.1434 4.03759C96.4287 4.46544 96.6384 4.94082 96.7727 5.46375C96.9069 5.99856 96.9824 6.61656 96.9824 7.31775C96.9824 7.91199 96.9069 8.45868 96.7643 8.95784C96.6217 9.46888 96.4287 9.90861 96.177 10.277C95.9253 10.6573 95.6233 10.9426 95.2793 11.1565C94.9353 11.3704 94.5661 11.4774 94.1718 11.4774C93.7691 11.4774 93.3999 11.3704 93.056 11.1565C92.712 10.9426 92.4183 10.6336 92.1666 10.2533C91.9149 9.87296 91.7136 9.43322 91.571 8.9103C91.4199 8.39926 91.3528 7.84068 91.3528 7.24645C91.3528 6.41452 91.4619 5.66579 91.6884 5.02401C91.9065 4.38224 92.2421 3.85932 92.6784 3.45524C92.8798 3.26508 93.0979 3.12247 93.3412 3.01551C93.5761 2.90855 93.8194 2.84912 94.0711 2.84912ZM94.1299 3.43147C93.5426 3.43147 93.0979 3.75236 92.7875 4.38224C92.4771 5.01213 92.326 5.91536 92.326 7.09195C92.326 8.35172 92.4771 9.30249 92.7959 9.94427C93.1063 10.5979 93.5677 10.9188 94.1718 10.9188C94.7759 10.9188 95.2373 10.5979 95.5478 9.95615C95.8582 9.31438 96.0176 8.37549 96.0176 7.13948C96.0176 5.92725 95.8498 5.01213 95.531 4.38224C95.2122 3.75236 94.7423 3.43147 94.1299 3.43147Z" fill="black"/>
</svg>
