<svg width="150" height="32" viewBox="0 0 150 32" fill="none" xmlns="http://www.w3.org/2000/svg">
<path d="M136.962 5.09912C144.37 5.09912 149.567 11.0346 149.567 18.0884C149.567 22.5431 148.027 25.8885 145.709 28.1196C143.391 30.3501 140.297 31.4652 137.195 31.4653C129.787 31.4652 124.59 25.529 124.59 18.4751C124.59 14.0203 126.13 10.675 128.448 8.44385C130.766 6.21331 133.86 5.0992 136.962 5.09912ZM136.964 5.46143C133.595 5.46149 130.603 6.71271 128.453 8.96338C126.303 11.2141 124.992 14.4671 124.992 18.4751C124.992 25.1773 129.921 31.1029 137.195 31.103C140.564 31.1029 143.556 29.8517 145.706 27.6011C147.856 25.3503 149.166 22.0965 149.166 18.0884C149.166 11.3107 144.238 5.46144 136.964 5.46143ZM111.481 12.5728C112.088 12.5728 112.54 12.7542 112.84 13.1001C113.138 13.4449 113.278 13.9456 113.278 14.5688C113.278 15.6587 112.911 16.9593 112.204 18.6548L111.881 19.4058L110.371 22.8618C111.392 21.042 112.934 18.4943 114.188 16.4966C116.061 13.5068 117.547 12.5747 119.125 12.5747C119.87 12.5748 120.47 12.7859 120.884 13.1948C121.297 13.6039 121.519 14.2045 121.519 14.9702C121.518 15.9462 120.909 16.9554 119.702 17.5591L119.658 17.5815L119.639 17.5366L119.519 17.2573L119.491 17.1929H119.551C120.527 16.7212 121.108 15.7833 121.108 14.9702C121.108 14.3201 120.951 13.8158 120.629 13.4741C120.307 13.133 119.814 12.9459 119.125 12.9458C117.756 12.9458 116.374 13.8034 114.505 16.7456C113.272 18.6879 109.908 24.1594 108.543 27.064L108.298 27.6089L107.542 29.3599L107.529 29.3872H107.11L107.139 29.3228L111.519 19.2896C112.433 17.181 112.868 15.6348 112.868 14.5688C112.868 13.9975 112.749 13.5931 112.521 13.3315C112.293 13.0713 111.95 12.9439 111.481 12.9438C110.645 12.9439 109.871 13.3906 109.135 14.3589C108.398 15.3283 107.703 16.8163 107.027 18.8843L107.012 18.9321L107.008 18.9302C106.409 20.6018 105.421 23.2764 104.287 25.5405C103.716 26.6818 103.107 27.7214 102.491 28.4761C102.184 28.8533 101.873 29.1609 101.563 29.3745C101.254 29.5881 100.942 29.7095 100.635 29.7095C100.126 29.7094 99.7038 29.5257 99.4102 29.1655C99.1175 28.8064 98.9561 28.2764 98.9561 27.5923C98.9561 27.0671 99.0969 26.4941 99.3115 25.8853C99.5262 25.2763 99.8161 24.6275 100.115 23.9507L100.116 23.9497L102.266 19.1724C103.223 17.0605 103.735 15.7962 103.735 14.6138C103.735 14.023 103.597 13.6084 103.354 13.3413C103.111 13.075 102.757 12.9478 102.308 12.9478C101.431 12.948 100.637 13.3958 99.8916 14.3589C99.1506 15.3163 98.4605 16.779 97.7891 18.8042L97.79 18.8052L97.7764 18.8452C97.1431 20.7006 96.1654 23.4473 95.0596 25.7114C94.5069 26.843 93.9206 27.8571 93.3281 28.5796C92.7383 29.2988 92.1307 29.7429 91.5342 29.7056C91.0299 29.6736 90.6089 29.5108 90.3145 29.1841C90.0204 28.8574 89.8584 28.3726 89.8584 27.7085C89.8585 27.2038 89.9994 26.6008 90.2139 25.9575C90.4286 25.3134 90.718 24.6246 91.0176 23.9478H91.0186L93.5654 18.3345C93.7835 17.8394 94.0121 17.2051 94.1855 16.5903C94.3593 15.9743 94.4765 15.3814 94.4766 14.9702C94.4765 14.2601 94.3185 13.755 94.0303 13.4282C93.7429 13.1026 93.3188 12.9459 92.7705 12.9458C91.9705 12.9458 91.0748 13.3956 90.1367 14.145C89.317 14.8 88.4689 15.6799 87.6309 16.6753L87.2725 17.1089C85.404 19.3743 83.3355 22.7548 82.8984 23.7075L80.4307 29.3618L80.4189 29.3892H80L80.0283 29.3247L84.4082 19.2915C85.3231 17.1827 85.7577 15.7163 85.7578 14.6118C85.7578 14.0603 85.6387 13.6439 85.4141 13.3667C85.1907 13.0913 84.8566 12.946 84.4102 12.9458C83.5338 12.9458 82.7823 13.3921 82.0625 14.3599C81.3463 15.3229 80.6642 16.7972 79.9277 18.8472L79.9297 18.8481L79.915 18.8813C79.9144 18.8832 79.9147 18.8854 79.9141 18.8872L79.8975 18.9331L79.8955 18.9321C76.698 27.2188 73.0952 29.7083 70.084 29.7085C68.5808 29.7084 67.58 29.2265 66.957 28.4116C66.3361 27.5991 66.0968 26.4626 66.0967 25.1646C66.0967 22.3455 67.3659 19.2 69.2666 16.7603C71.1666 14.3218 73.7062 12.5776 76.2539 12.5776C77.0577 12.5777 77.7269 12.7779 78.1953 13.1753C78.6647 13.5737 78.9277 14.1658 78.9277 14.9331C78.9275 16.3425 78.2819 17.5497 77.1582 18.4722L77.082 18.5337V18.5317C75.8685 19.5594 74.2411 20.3299 72.4648 20.9497C70.66 21.5794 68.6978 22.0554 66.8555 22.4917C66.6225 23.3945 66.5049 24.2969 66.5049 25.1606C66.5049 26.3706 66.7335 27.4139 67.292 28.1538C67.8487 28.8911 68.7394 29.3354 70.082 29.3354C71.4194 29.3354 73.0606 28.5889 74.7314 26.8882C76.4018 25.1879 78.0991 22.5364 79.5479 18.7358L79.5576 18.7104C80.3244 16.5886 81.0401 15.0582 81.8096 14.0571C82.5836 13.0502 83.4157 12.5747 84.4102 12.5747C84.9568 12.5749 85.3988 12.747 85.7031 13.0923C86.0066 13.437 86.168 13.9479 86.168 14.6118V14.7231L86.1631 14.7183C86.1382 15.725 85.7747 17.0394 85.1191 18.6118L84.8086 19.3267L84.0869 20.9722C85.1893 19.1858 86.0622 17.9674 87.001 16.8491L87.3887 16.3872C88.2889 15.3315 89.166 14.431 90.0098 13.771C90.9732 13.0174 91.8993 12.5728 92.7705 12.5728C93.4363 12.5729 93.9685 12.7641 94.333 13.1646C94.6966 13.5643 94.8876 14.1652 94.8877 14.9683C94.8876 15.5325 94.7365 16.2051 94.542 16.8384C94.3959 17.3141 94.2246 17.7702 94.0723 18.145L93.9277 18.4907L91.3799 24.104C91.0814 24.8007 90.8029 25.4755 90.5996 26.0903C90.3961 26.7058 90.2686 27.2576 90.2686 27.7085C90.2686 28.3386 90.4166 28.7438 90.6445 28.9907C90.872 29.2367 91.187 29.3345 91.5371 29.3345C91.7717 29.3343 92.0225 29.2272 92.2852 29.0259C92.5477 28.8246 92.8194 28.531 93.0947 28.1665C93.6455 27.4374 94.2081 26.4277 94.7471 25.3091C95.8158 23.0909 96.7889 20.451 97.3945 18.7378L97.4072 18.6997C98.1047 16.5878 98.8336 15.0589 99.6348 14.0571C100.437 13.0541 101.315 12.5769 102.308 12.5767C102.855 12.5767 103.317 12.7587 103.641 13.1079C103.964 13.4569 104.146 13.9674 104.146 14.6138C104.145 15.2184 103.984 15.9108 103.715 16.6938C103.445 17.4773 103.067 18.3554 102.63 19.3306L100.479 24.1079L100.451 24.1694L100.449 24.1675C99.8264 25.5359 99.3664 26.6604 99.3662 27.5903C99.3662 28.2413 99.5147 28.6775 99.7441 28.9497C99.9725 29.2207 100.287 29.3364 100.635 29.3364C100.869 29.3364 101.123 29.2274 101.391 29.0229C101.658 28.8186 101.937 28.5209 102.221 28.1519C102.788 27.4137 103.373 26.3938 103.933 25.27C105.052 23.023 106.07 20.3679 106.657 18.7378L106.674 18.6919C107.347 16.6413 108.061 15.1172 108.847 14.103C109.638 13.0809 110.507 12.5728 111.481 12.5728ZM29.4883 12.5728C30.9548 12.5728 32.0038 13.1462 32.6846 14.0288C33.3639 14.9099 33.6738 16.0954 33.6738 17.3169V17.3188C33.6738 17.3426 33.672 17.3664 33.6719 17.3901C34.221 15.9549 34.7884 14.8563 35.4004 14.0737C36.1924 13.0609 37.0604 12.5737 38.0537 12.5737C38.6005 12.5738 39.0423 12.746 39.3467 13.0913C39.6502 13.436 39.8115 13.9469 39.8115 14.6108C39.8114 15.5608 39.4114 16.6632 38.8848 17.8823L38.6523 18.4126L36.2227 23.6694C35.7848 24.6635 35.3115 26.0091 35.3115 27.0337C35.3117 27.6431 35.4791 28.22 35.8096 28.6431C36.1392 29.0647 36.6337 29.3364 37.2959 29.3364C38.0187 29.3363 38.7558 29.0137 39.498 28.4692C40.2401 27.9249 40.9841 27.1617 41.7197 26.2876C44.3428 23.1863 46.8093 18.4538 47.4463 17.021L49.2373 12.9214L49.249 12.8931H49.668L49.6396 12.9575L45.2598 22.9917C44.3452 25.0998 43.9112 26.6862 43.9111 27.7114C43.9112 28.3418 44.059 28.7468 44.2871 28.9937C44.5146 29.2395 44.8287 29.3364 45.1787 29.3364C46.1502 29.3363 47.134 28.5679 47.9912 27.3345C48.8465 26.1037 49.5675 24.422 50.0186 22.6255L50.0322 22.5728L52.0254 15.0737L52.0264 15.0698H52.0273C52.3537 14.1721 52.8071 13.6448 53.2939 13.3433C53.7803 13.0422 54.2953 12.9692 54.7383 12.9692C55.1014 12.9693 55.4266 13.0299 55.7471 13.1772C56.0671 13.3244 56.3809 13.5572 56.7217 13.8979C57.0018 14.1771 57.2881 14.4736 57.5645 14.7007C57.843 14.9296 58.1007 15.0786 58.3213 15.0786C58.3658 15.0786 58.4044 15.072 58.4434 15.0552C58.4831 15.0379 58.5268 15.0081 58.5791 14.9604C58.6849 14.8639 58.8217 14.698 59.041 14.4194C59.6763 13.6257 60.0354 13.146 60.3936 12.7085L60.4199 12.6763L60.4551 12.6997L60.6934 12.8579L60.7344 12.8862L60.7041 12.9253C59.2282 14.8401 57.1627 17.1835 55.4912 19.8892C54.3369 21.7612 53.1886 23.8604 53.1885 25.8755C53.1885 26.8788 53.5524 27.7424 54.2139 28.355C54.8756 28.9678 55.8396 29.3335 57.0439 29.3335C59.294 29.3333 61.5516 28.0284 63.1367 25.729C64.923 23.1479 66.0341 19.6942 66.0342 16.7573C66.0341 15.0933 65.6367 13.8686 64.9697 13.0024L64.9395 12.9634L64.9814 12.936L65.2197 12.7769L65.2559 12.7534L65.2822 12.7876C65.9659 13.6732 66.4472 14.9577 66.4473 16.7573C66.4472 19.7922 65.2494 23.3865 63.4531 25.98C61.8939 28.2186 59.5326 29.7024 57.0459 29.7026C55.8022 29.7026 54.7349 29.3118 53.9785 28.6362C53.2218 27.9603 52.7783 27.0012 52.7783 25.8735C52.7785 23.7494 53.9414 21.6681 55.1348 19.7192C56.075 18.1916 57.2061 16.7029 58.2275 15.4429C57.906 15.4124 57.5983 15.2298 57.3145 14.9966C57.0034 14.7409 56.7106 14.4191 56.4541 14.1626C56.1576 13.8662 55.893 13.6609 55.6211 13.5298C55.3499 13.3991 55.0685 13.3404 54.7363 13.3403C54.1095 13.3403 53.5508 13.5128 53.0791 14.0347C52.6049 14.5595 52.2142 15.443 51.9365 16.8735L51.9355 16.8765L50.3379 22.981L50.3291 23.0151H50.3184C49.8448 24.7474 49.1393 26.3821 48.2822 27.6011C47.3858 28.8759 46.3186 29.7084 45.1807 29.7085C44.6733 29.7085 44.2514 29.5456 43.957 29.2104C43.6634 28.876 43.502 28.3754 43.502 27.7114C43.502 26.5457 43.9442 25.0255 44.9004 22.8745L44.9014 22.8726V22.8716L45.5723 21.3403C43.8664 24.2519 42.3587 26.2984 41.0254 27.6362C39.589 29.0775 38.3525 29.7045 37.2988 29.7046C36.5291 29.7045 35.9286 29.3891 35.5215 28.896C35.1154 28.4037 34.9034 27.7363 34.9033 27.0317C34.9033 25.8267 35.3844 24.5826 35.8633 23.5083L38.293 18.2544C38.6105 17.5585 38.8885 16.8731 39.0869 16.2485C39.2855 15.6235 39.4033 15.0614 39.4033 14.6108C39.4033 14.0395 39.2839 13.6242 39.0596 13.3521C38.8366 13.0817 38.5032 12.9449 38.0557 12.9448C37.1791 12.9448 36.3944 13.4014 35.6582 14.3745C34.928 15.3398 34.2492 16.809 33.5791 18.8286C33.2933 21.2039 32.3653 23.6506 31.0088 25.6196C29.3623 28.0092 27.08 29.7055 24.5498 29.7056C23.0637 29.7055 22.0147 29.1217 21.3389 28.2339C20.6644 27.3478 20.3643 26.1625 20.3643 24.9614C20.3643 22.0246 21.4324 18.929 23.1045 16.5679C24.7759 14.208 27.0583 12.573 29.4883 12.5728ZM16.6738 1.11182C18.7939 1.11186 20.3316 1.76223 21.3379 2.95459C22.3428 4.14557 22.8114 5.8701 22.8115 8.00537C22.8115 8.51439 22.7792 8.8797 22.7217 9.46533L25.668 1.73877L25.6787 1.7085H26.0957L26.0723 1.771L22.4893 11.1675L22.4775 11.1968H22.1113L22.1211 11.1431C22.3203 9.99022 22.3994 8.95852 22.3994 8.00537V8.00244C22.3994 5.87826 21.9426 4.24787 21.002 3.1499C20.0624 2.05352 18.6333 1.47903 16.6719 1.479C15.0467 1.47903 13.4049 1.90614 12.1709 2.87354C10.9388 3.83963 10.1085 5.34863 10.1084 7.5249C10.1084 8.96457 10.7004 10.2692 11.627 11.4683C12.5538 12.6675 13.8138 13.7599 15.1465 14.7749L15.6172 15.1323C17.9377 16.9212 19.7038 18.7371 19.7041 21.8569C19.7041 24.5374 18.6429 26.5022 17.0693 27.7954C15.497 29.0876 13.4156 29.7075 11.377 29.7075C9.17666 29.7075 7.37217 28.9773 6.11816 27.6831C4.86441 26.3889 4.16406 24.5347 4.16406 22.2954C4.16408 21.8152 4.19225 21.3611 4.26367 20.8296L1.18848 28.8423L1.17676 28.8716H0.759766L0.78418 28.8091L4.56641 18.936L4.57812 18.9067H4.94434L4.93457 18.9614C4.6965 20.233 4.5762 21.504 4.57617 22.2974C4.57617 24.4176 5.23077 26.1768 6.40527 27.4058C7.57969 28.6345 9.2792 29.3374 11.3789 29.3374C13.3409 29.3373 15.3204 28.7432 16.8086 27.5122C18.2957 26.282 19.2949 24.4135 19.2949 21.8589C19.2947 18.6594 17.4019 16.9983 14.9336 15.0884C13.6195 14.0729 12.3112 12.965 11.332 11.7212C10.3528 10.4771 9.7002 9.09336 9.7002 7.52686C9.70029 5.26445 10.582 3.65877 11.8975 2.61963C13.2114 1.58169 14.9542 1.11184 16.6738 1.11182ZM29.4883 12.9458C27.6768 12.946 25.9624 13.9168 24.5469 15.4106L24.2686 15.7163C22.1663 18.1375 20.7764 21.7488 20.7764 24.9634C20.7764 26.1306 21.0534 27.2244 21.6621 28.0249C22.2697 28.8236 23.2119 29.3353 24.5518 29.3354C26.4791 29.3354 28.2951 28.2361 29.7598 26.5776V26.5767L29.7715 26.564C31.8738 24.1429 33.2635 20.5315 33.2637 17.3188C33.2637 16.1313 32.9762 15.0372 32.3623 14.2417C31.7496 13.4479 30.8079 12.9459 29.4883 12.9458ZM137.68 10.9614C139.191 10.9614 140.577 11.3025 141.587 11.9604C142.598 12.6193 143.231 13.5962 143.231 14.8618V14.9741L143.228 14.9702C143.199 15.9365 142.792 16.8941 142.003 17.5747L141.971 17.6021L141.94 17.5718L141.757 17.3892L141.724 17.355L141.758 17.3228C142.519 16.5977 142.846 15.7274 142.846 14.8599C142.846 13.6849 142.259 12.7995 141.32 12.2056C140.38 11.6105 139.086 11.3091 137.68 11.3091C133.705 11.3093 130.421 14.4452 130.421 18.8608C130.421 21.0721 131.07 22.9609 132.218 24.2954C133.365 25.6293 135.014 26.4134 137.02 26.4136C138.716 26.4136 140.055 25.894 141.093 25.0522C142.131 24.2099 142.871 23.0425 143.364 21.7456L143.382 21.7007L143.426 21.7192L143.683 21.8306L143.723 21.8481L143.708 21.8892C142.712 24.6187 140.53 26.7651 137.02 26.7651C134.915 26.765 133.167 25.9522 131.946 24.5562C130.726 23.1606 130.035 21.1845 130.035 18.8628C130.035 14.2119 133.505 10.9616 137.68 10.9614ZM76.2539 12.9448C74.2021 12.9448 72.1735 14.1498 70.5059 15.9067C68.8586 17.6423 67.5703 19.9116 66.9658 22.0708C68.5993 21.6963 70.4759 21.2434 72.2412 20.6323C73.9236 20.0499 75.5018 19.3249 76.6719 18.3882L76.9004 18.1978C77.9279 17.2893 78.5164 16.2251 78.5166 14.9292C78.5166 14.2828 78.3208 13.789 77.9453 13.4565C77.5685 13.1233 77.0034 12.9449 76.2539 12.9448ZM105.93 4.88916C106.155 4.88916 106.335 5.06838 106.335 5.29346C106.335 5.5186 106.155 5.69873 105.93 5.69873C105.705 5.69851 105.525 5.51846 105.525 5.29346C105.526 5.06852 105.705 4.88938 105.93 4.88916Z" fill="#231F20"/>
<path d="M136.962 5.09912V4.97582V5.09912ZM149.567 18.0884H149.691V18.0884L149.567 18.0884ZM145.709 28.1196L145.794 28.2085V28.2085L145.709 28.1196ZM137.195 31.4653V31.5886V31.4653ZM124.59 18.4751L124.467 18.4751V18.4751H124.59ZM128.448 8.44385L128.363 8.355V8.355L128.448 8.44385ZM136.964 5.46143V5.33812V5.46143ZM128.453 8.96338L128.364 8.87821V8.87821L128.453 8.96338ZM124.992 18.4751L124.869 18.4751V18.4751H124.992ZM137.195 31.103V31.2263V31.103ZM145.706 27.6011L145.795 27.6862L145.706 27.6011ZM149.166 18.0884H149.289V18.0884L149.166 18.0884ZM111.481 12.5728L111.481 12.4495H111.481V12.5728ZM112.84 13.1001L112.933 13.0194L112.933 13.0194L112.84 13.1001ZM113.278 14.5688L113.402 14.5689V14.5688L113.278 14.5688ZM112.204 18.6548L112.317 18.7035L112.318 18.7022L112.204 18.6548ZM111.881 19.4058L111.994 19.4551L111.994 19.4545L111.881 19.4058ZM110.371 22.8618L110.258 22.8125L110.479 22.9222L110.371 22.8618ZM114.188 16.4966L114.292 16.5621L114.292 16.5621L114.188 16.4966ZM119.125 12.5747L119.125 12.4514H119.125V12.5747ZM120.884 13.1948L120.97 13.1072L120.97 13.1071L120.884 13.1948ZM121.519 14.9702L121.642 14.9702V14.9702L121.519 14.9702ZM119.702 17.5591L119.647 17.4488L119.646 17.4493L119.702 17.5591ZM119.658 17.5815L119.545 17.6307L119.597 17.7511L119.714 17.6913L119.658 17.5815ZM119.639 17.5366L119.525 17.5853L119.526 17.5858L119.639 17.5366ZM119.519 17.2573L119.405 17.3055L119.405 17.306L119.519 17.2573ZM119.491 17.1929V17.0696H119.305L119.378 17.241L119.491 17.1929ZM119.551 17.1929V17.3162H119.579L119.604 17.3039L119.551 17.1929ZM121.108 14.9702L121.232 14.9702V14.9702L121.108 14.9702ZM120.629 13.4741L120.719 13.3896L120.719 13.3895L120.629 13.4741ZM119.125 12.9458L119.125 12.8225H119.125V12.9458ZM114.505 16.7456L114.401 16.6795L114.401 16.6795L114.505 16.7456ZM108.543 27.064L108.431 27.0115L108.431 27.0134L108.543 27.064ZM108.298 27.6089L108.185 27.5583L108.185 27.56L108.298 27.6089ZM107.542 29.3599L107.654 29.4118L107.655 29.4087L107.542 29.3599ZM107.529 29.3872V29.5105H107.608L107.641 29.4391L107.529 29.3872ZM107.11 29.3872L106.997 29.3376L106.921 29.5105H107.11V29.3872ZM107.139 29.3228L107.252 29.3724L107.252 29.3721L107.139 29.3228ZM111.519 19.2896L111.632 19.3389L111.632 19.3386L111.519 19.2896ZM112.868 14.5688L112.991 14.5689V14.5688L112.868 14.5688ZM112.521 13.3315L112.613 13.2505L112.613 13.2504L112.521 13.3315ZM111.481 12.9438L111.481 12.8205H111.481L111.481 12.9438ZM109.135 14.3589L109.037 14.2843L109.037 14.2843L109.135 14.3589ZM107.027 18.8843L106.91 18.846L106.91 18.846L107.027 18.8843ZM107.012 18.9321L106.957 19.0424L107.085 19.1064L107.129 18.9704L107.012 18.9321ZM107.008 18.9302L107.063 18.8199L106.939 18.7577L106.892 18.8886L107.008 18.9302ZM104.287 25.5405L104.397 25.5957L104.287 25.5405ZM102.491 28.4761L102.587 28.554L102.587 28.554L102.491 28.4761ZM101.563 29.3745L101.634 29.476L101.634 29.476L101.563 29.3745ZM100.635 29.7095L100.635 29.8328H100.635V29.7095ZM99.4102 29.1655L99.3146 29.2434L99.3146 29.2434L99.4102 29.1655ZM98.9561 27.5923L98.8328 27.5923V27.5923L98.9561 27.5923ZM99.3115 25.8853L99.1952 25.8443V25.8443L99.3115 25.8853ZM100.115 23.9507L100.028 23.8635L100.012 23.8798L100.002 23.9008L100.115 23.9507ZM100.116 23.9497L100.203 24.0369L100.219 24.0209L100.229 24.0003L100.116 23.9497ZM102.266 19.1724L102.153 19.1215L102.153 19.1218L102.266 19.1724ZM103.735 14.6138L103.859 14.6138V14.6138H103.735ZM103.354 13.3413L103.445 13.2583L103.445 13.2583L103.354 13.3413ZM102.308 12.9478V12.8245H102.308L102.308 12.9478ZM99.8916 14.3589L99.7941 14.2834L99.7941 14.2834L99.8916 14.3589ZM97.7891 18.8042L97.672 18.7654L97.6481 18.8376L97.7019 18.8914L97.7891 18.8042ZM97.79 18.8052L97.9067 18.845L97.9315 18.7723L97.8772 18.718L97.79 18.8052ZM97.7764 18.8452L97.6597 18.8054L97.6597 18.8054L97.7764 18.8452ZM95.0596 25.7114L95.1704 25.7655V25.7655L95.0596 25.7114ZM93.3281 28.5796L93.4235 28.6578L93.4235 28.6578L93.3281 28.5796ZM91.5342 29.7056L91.5264 29.8286L91.5265 29.8286L91.5342 29.7056ZM90.3145 29.1841L90.2228 29.2666L90.2228 29.2666L90.3145 29.1841ZM89.8584 27.7085L89.7351 27.7085V27.7085L89.8584 27.7085ZM90.2139 25.9575L90.0969 25.9185V25.9185L90.2139 25.9575ZM91.0176 23.9478V23.8245H90.9373L90.9048 23.8978L91.0176 23.9478ZM91.0186 23.9478V24.0711H91.098L91.1308 23.9987L91.0186 23.9478ZM93.5654 18.3345L93.6777 18.3854L93.6783 18.3842L93.5654 18.3345ZM94.1855 16.5903L94.3042 16.6238V16.6238L94.1855 16.5903ZM94.4766 14.9702L94.5999 14.9702V14.9702L94.4766 14.9702ZM94.0303 13.4282L94.1227 13.3467L94.1227 13.3466L94.0303 13.4282ZM92.7705 12.9458L92.7705 12.8225H92.7705V12.9458ZM90.1367 14.145L90.0598 14.0487V14.0487L90.1367 14.145ZM87.6309 16.6753L87.5365 16.5959L87.5358 16.5967L87.6309 16.6753ZM87.2725 17.1089L87.1774 17.0303L87.1773 17.0304L87.2725 17.1089ZM82.8984 23.7075L82.7863 23.6561L82.7854 23.6582L82.8984 23.7075ZM80.4307 29.3618L80.3176 29.3125L80.3173 29.3132L80.4307 29.3618ZM80.4189 29.3892V29.5125H80.5003L80.5323 29.4377L80.4189 29.3892ZM80 29.3892L79.8871 29.3396L79.8111 29.5125H80V29.3892ZM80.0283 29.3247L80.1412 29.3743L80.1413 29.374L80.0283 29.3247ZM84.4082 19.2915L84.5212 19.3408L84.5213 19.3406L84.4082 19.2915ZM85.7578 14.6118L85.8811 14.6118V14.6118H85.7578ZM85.4141 13.3667L85.5099 13.2891L85.5098 13.289L85.4141 13.3667ZM84.4102 12.9458L84.4102 12.8225H84.4102V12.9458ZM82.0625 14.3599L81.9636 14.2863V14.2863L82.0625 14.3599ZM79.9277 18.8472L79.8117 18.8055L79.7747 18.9085L79.8726 18.9575L79.9277 18.8472ZM79.9297 18.8481L80.0425 18.8979L80.0899 18.7904L79.9848 18.7379L79.9297 18.8481ZM79.915 18.8813L79.8019 18.8315L79.799 18.8397L79.915 18.8813ZM79.9141 18.8872L80.03 18.9291L80.0301 18.9288L79.9141 18.8872ZM79.8975 18.9331L79.8423 19.0434L79.9663 19.1054L80.0134 18.975L79.8975 18.9331ZM79.8955 18.9321L79.9507 18.8218L79.8293 18.7612L79.7805 18.8877L79.8955 18.9321ZM70.084 29.7085L70.084 29.8318H70.084L70.084 29.7085ZM66.957 28.4116L66.8591 28.4865L66.8591 28.4865L66.957 28.4116ZM66.0967 25.1646H65.9734V25.1646L66.0967 25.1646ZM69.2666 16.7603L69.1693 16.6845V16.6845L69.2666 16.7603ZM76.2539 12.5776L76.2539 12.4543H76.2539V12.5776ZM78.1953 13.1753L78.2751 13.0813L78.2751 13.0813L78.1953 13.1753ZM78.9277 14.9331L79.051 14.9331V14.9331H78.9277ZM77.1582 18.4722L77.2357 18.5681L77.2364 18.5675L77.1582 18.4722ZM77.082 18.5337H76.9587V18.7918L77.1595 18.6296L77.082 18.5337ZM77.082 18.5317H77.2053V18.2658L77.0023 18.4376L77.082 18.5317ZM72.4648 20.9497L72.5055 21.0661H72.5055L72.4648 20.9497ZM66.8555 22.4917L66.8271 22.3717L66.7547 22.3889L66.7361 22.4609L66.8555 22.4917ZM66.5049 25.1606H66.3816V25.1607L66.5049 25.1606ZM67.292 28.1538L67.1936 28.2281L67.1936 28.2281L67.292 28.1538ZM70.082 29.3354L70.082 29.4588H70.082L70.082 29.3354ZM74.7314 26.8882L74.8194 26.9746L74.7314 26.8882ZM79.5479 18.7358L79.4328 18.6916L79.4326 18.6919L79.5479 18.7358ZM79.5576 18.7104L79.6727 18.7547L79.6736 18.7524L79.5576 18.7104ZM81.8096 14.0571L81.7118 13.982L81.7118 13.982L81.8096 14.0571ZM84.4102 12.5747L84.4102 12.4514H84.4102V12.5747ZM85.7031 13.0923L85.7957 13.0108L85.7956 13.0108L85.7031 13.0923ZM86.168 14.7231L86.0808 14.8103L86.2913 15.0208V14.7231H86.168ZM86.1631 14.7183L86.2503 14.6311L86.0469 14.4277L86.0398 14.7152L86.1631 14.7183ZM85.1191 18.6118L85.2322 18.661L85.2329 18.6593L85.1191 18.6118ZM84.8086 19.3267L84.9215 19.3762L84.9217 19.3758L84.8086 19.3267ZM84.0869 20.9722L83.974 20.9226L84.1918 21.0369L84.0869 20.9722ZM87.001 16.8491L87.0954 16.9284L87.0954 16.9284L87.001 16.8491ZM87.3887 16.3872L87.2948 16.3072L87.2942 16.3079L87.3887 16.3872ZM90.0098 13.771L89.9338 13.6739L89.9338 13.6739L90.0098 13.771ZM92.7705 12.5728L92.7705 12.4495H92.7705V12.5728ZM94.333 13.1646L94.4242 13.0816L94.4242 13.0816L94.333 13.1646ZM94.8877 14.9683L95.011 14.9683V14.9683L94.8877 14.9683ZM94.542 16.8384L94.6599 16.8746V16.8746L94.542 16.8384ZM94.0723 18.145L94.186 18.1926L94.1865 18.1915L94.0723 18.145ZM93.9277 18.4907L94.0401 18.5417L94.0415 18.5383L93.9277 18.4907ZM91.3799 24.104L91.2676 24.053L91.2665 24.0555L91.3799 24.104ZM90.5996 26.0903L90.4825 26.0516V26.0516L90.5996 26.0903ZM90.2686 27.7085L90.1453 27.7085V27.7085L90.2686 27.7085ZM90.6445 28.9907L90.5539 29.0744L90.554 29.0744L90.6445 28.9907ZM91.5371 29.3345L91.5371 29.4578H91.5372L91.5371 29.3345ZM92.2852 29.0259L92.3602 29.1238L92.3602 29.1237L92.2852 29.0259ZM93.0947 28.1665L93.1931 28.2408V28.2408L93.0947 28.1665ZM94.7471 25.3091L94.8581 25.3626H94.8582L94.7471 25.3091ZM97.3945 18.7378L97.5108 18.7789L97.5115 18.7768L97.3945 18.7378ZM97.4072 18.6997L97.5242 18.7387L97.5243 18.7384L97.4072 18.6997ZM99.6348 14.0571L99.5385 13.9801L99.5385 13.9801L99.6348 14.0571ZM102.308 12.5767V12.4534H102.308L102.308 12.5767ZM103.641 13.1079L103.731 13.0241L103.731 13.0241L103.641 13.1079ZM104.146 14.6138L104.269 14.6138V14.6138H104.146ZM103.715 16.6938L103.831 16.734V16.734L103.715 16.6938ZM102.63 19.3306L102.742 19.3812L102.742 19.381L102.63 19.3306ZM100.479 24.1079L100.591 24.1595L100.592 24.1585L100.479 24.1079ZM100.451 24.1694L100.364 24.2566L100.489 24.3818L100.563 24.221L100.451 24.1694ZM100.449 24.1675L100.536 24.0803L100.411 23.9545L100.337 24.1164L100.449 24.1675ZM99.3662 27.5903L99.2429 27.5903V27.5903L99.3662 27.5903ZM99.7441 28.9497L99.6499 29.0292L99.6499 29.0292L99.7441 28.9497ZM100.635 29.3364L100.635 29.4597H100.635V29.3364ZM101.391 29.0229L101.465 29.121L101.465 29.1209L101.391 29.0229ZM102.221 28.1519L102.318 28.227L102.318 28.227L102.221 28.1519ZM103.933 25.27L104.043 25.325L103.933 25.27ZM106.657 18.7378L106.541 18.6959L106.541 18.696L106.657 18.7378ZM106.674 18.6919L106.79 18.7339L106.791 18.7303L106.674 18.6919ZM108.847 14.103L108.749 14.0275L108.749 14.0275L108.847 14.103ZM29.4883 12.5728L29.4883 12.4495H29.4883L29.4883 12.5728ZM32.6846 14.0288L32.7822 13.9535L32.7822 13.9535L32.6846 14.0288ZM33.6738 17.3188L33.7971 17.3189V17.3188H33.6738ZM33.6719 17.3901L33.5486 17.3894L33.5444 18.0683L33.787 17.4342L33.6719 17.3901ZM35.4004 14.0737L35.3033 13.9978V13.9978L35.4004 14.0737ZM38.0537 12.5737L38.0537 12.4504H38.0537V12.5737ZM39.3467 13.0913L39.4392 13.0098L39.4392 13.0098L39.3467 13.0913ZM39.8115 14.6108L39.9348 14.6108V14.6108H39.8115ZM38.8848 17.8823L38.9977 17.9318L38.998 17.9312L38.8848 17.8823ZM38.6523 18.4126L38.7643 18.4643L38.7653 18.4621L38.6523 18.4126ZM36.2227 23.6694L36.1107 23.6177L36.1098 23.6197L36.2227 23.6694ZM35.3115 27.0337H35.1882V27.0337L35.3115 27.0337ZM35.8096 28.6431L35.7124 28.719L35.7124 28.719L35.8096 28.6431ZM37.2959 29.3364V29.4597H37.2959L37.2959 29.3364ZM39.498 28.4692L39.571 28.5687L39.571 28.5687L39.498 28.4692ZM41.7197 26.2876L41.6256 26.208L41.6254 26.2082L41.7197 26.2876ZM47.4463 17.021L47.559 17.0711L47.5593 17.0704L47.4463 17.021ZM49.2373 12.9214L49.3503 12.9708L49.3512 12.9685L49.2373 12.9214ZM49.249 12.8931V12.7698H49.1666L49.1351 12.8459L49.249 12.8931ZM49.668 12.8931L49.7809 12.9427L49.8568 12.7698H49.668V12.8931ZM49.6396 12.9575L49.5268 12.9079L49.5266 12.9082L49.6396 12.9575ZM45.2598 22.9917L45.1468 22.9424L45.1466 22.9426L45.2598 22.9917ZM43.9111 27.7114L43.7878 27.7114V27.7114L43.9111 27.7114ZM44.2871 28.9937L44.1965 29.0773L44.1966 29.0774L44.2871 28.9937ZM45.1787 29.3364L45.1787 29.4597H45.1787L45.1787 29.3364ZM47.9912 27.3345L48.0925 27.4048L48.0925 27.4048L47.9912 27.3345ZM50.0186 22.6255L49.8992 22.5945L49.899 22.5955L50.0186 22.6255ZM50.0322 22.5728L49.9131 22.5411L49.9129 22.5418L50.0322 22.5728ZM52.0254 15.0737L52.1446 15.1054L52.145 15.1036L52.0254 15.0737ZM52.0264 15.0698V14.9465H51.9301L51.9067 15.0399L52.0264 15.0698ZM52.0273 15.0698V15.1931H52.1137L52.1432 15.112L52.0273 15.0698ZM53.2939 13.3433L53.229 13.2384L53.229 13.2384L53.2939 13.3433ZM54.7383 12.9692L54.7383 12.8459H54.7383V12.9692ZM55.7471 13.1772L55.7986 13.0652L55.7986 13.0652L55.7471 13.1772ZM56.7217 13.8979L56.6345 13.9851L56.6346 13.9853L56.7217 13.8979ZM57.5645 14.7007L57.4862 14.7959L57.4862 14.7959L57.5645 14.7007ZM58.3213 15.0786V15.2019H58.3214L58.3213 15.0786ZM58.4434 15.0552L58.4923 15.1684L58.4925 15.1682L58.4434 15.0552ZM58.5791 14.9604L58.6621 15.0516L58.6622 15.0515L58.5791 14.9604ZM59.041 14.4194L58.9447 14.3424L58.9441 14.3432L59.041 14.4194ZM60.3936 12.7085L60.489 12.7866L60.489 12.7866L60.3936 12.7085ZM60.4199 12.6763L60.4883 12.5737L60.3953 12.5117L60.3245 12.5982L60.4199 12.6763ZM60.4551 12.6997L60.3867 12.8023L60.3869 12.8024L60.4551 12.6997ZM60.6934 12.8579L60.7634 12.7564L60.7616 12.7552L60.6934 12.8579ZM60.7344 12.8862L60.8318 12.9618L60.9116 12.8588L60.8044 12.7848L60.7344 12.8862ZM60.7041 12.9253L60.6066 12.8498L60.6064 12.85L60.7041 12.9253ZM55.4912 19.8892L55.3863 19.8244L55.3863 19.8244L55.4912 19.8892ZM53.1885 25.8755L53.0652 25.8755V25.8755H53.1885ZM54.2139 28.355L54.1301 28.4454L54.1301 28.4454L54.2139 28.355ZM57.0439 29.3335V29.4568H57.044L57.0439 29.3335ZM63.1367 25.729L63.0353 25.6588L63.0352 25.659L63.1367 25.729ZM66.0342 16.7573L66.1575 16.7573V16.7573L66.0342 16.7573ZM64.9697 13.0024L65.0674 12.9272L65.0672 12.9269L64.9697 13.0024ZM64.9395 12.9634L64.8722 12.8601L64.76 12.9331L64.842 13.0389L64.9395 12.9634ZM64.9814 12.936L65.0487 13.0394L65.0499 13.0386L64.9814 12.936ZM65.2197 12.7769L65.1526 12.6734L65.1512 12.6743L65.2197 12.7769ZM65.2559 12.7534L65.3535 12.6781L65.2841 12.5881L65.1888 12.65L65.2559 12.7534ZM65.2822 12.7876L65.1846 12.8629L65.1846 12.8629L65.2822 12.7876ZM66.4473 16.7573L66.5706 16.7573V16.7573L66.4473 16.7573ZM63.4531 25.98L63.5543 26.0505L63.5545 26.0502L63.4531 25.98ZM57.0459 29.7026V29.8259H57.0459L57.0459 29.7026ZM53.9785 28.6362L53.8964 28.7282L53.8964 28.7282L53.9785 28.6362ZM52.7783 25.8735L52.655 25.8735V25.8735H52.7783ZM55.1348 19.7192L55.0298 19.6546L55.0296 19.6549L55.1348 19.7192ZM58.2275 15.4429L58.3233 15.5205L58.4682 15.3418L58.2392 15.3201L58.2275 15.4429ZM57.3145 14.9966L57.2362 15.0918V15.0918L57.3145 14.9966ZM56.4541 14.1626L56.5413 14.0754L56.5413 14.0754L56.4541 14.1626ZM55.6211 13.5298L55.6747 13.4187L55.6746 13.4187L55.6211 13.5298ZM54.7363 13.3403L54.7363 13.217H54.7363V13.3403ZM53.0791 14.0347L52.9876 13.952L52.9876 13.952L53.0791 14.0347ZM51.9365 16.8735L52.0535 16.9125L52.056 16.9049L52.0576 16.897L51.9365 16.8735ZM51.9355 16.8765L51.8183 16.8374L51.8163 16.8452L51.9355 16.8765ZM50.3379 22.981L50.2186 22.9497L50.2185 22.9503L50.3379 22.981ZM50.3291 23.0151V23.1384H50.4247L50.4485 23.0458L50.3291 23.0151ZM50.3184 23.0151V22.8918H50.2242L50.1994 22.9826L50.3184 23.0151ZM48.2822 27.6011L48.3831 27.672V27.672L48.2822 27.6011ZM45.1807 29.7085L45.1807 29.8318H45.1807L45.1807 29.7085ZM43.957 29.2104L43.8644 29.2918L43.8644 29.2918L43.957 29.2104ZM43.502 27.7114L43.3787 27.7114V27.7114L43.502 27.7114ZM44.9004 22.8745L44.79 22.8193L44.7877 22.8244L44.9004 22.8745ZM44.9014 22.8726L45.0117 22.9277L45.0247 22.9017V22.8726H44.9014ZM44.9014 22.8716L44.7884 22.8221L44.7781 22.8458V22.8716H44.9014ZM45.5723 21.3403L45.6852 21.3898L45.4659 21.278L45.5723 21.3403ZM41.0254 27.6362L41.1127 27.7233H41.1127L41.0254 27.6362ZM37.2988 29.7046L37.2988 29.8279H37.2988L37.2988 29.7046ZM35.5215 28.896L35.4264 28.9745L35.4264 28.9745L35.5215 28.896ZM34.9033 27.0317H34.78V27.0318L34.9033 27.0317ZM35.8633 23.5083L35.7514 23.4565L35.7507 23.4581L35.8633 23.5083ZM38.293 18.2544L38.4049 18.3062L38.4051 18.3056L38.293 18.2544ZM39.0869 16.2485L39.2044 16.2859L39.2044 16.2859L39.0869 16.2485ZM39.4033 14.6108L39.5266 14.6109V14.6108H39.4033ZM39.0596 13.3521L39.1547 13.2736L39.1547 13.2736L39.0596 13.3521ZM38.0557 12.9448L38.0557 12.8215H38.0557V12.9448ZM35.6582 14.3745L35.5599 14.3001V14.3001L35.6582 14.3745ZM33.5791 18.8286L33.4621 18.7898L33.4582 18.8016L33.4567 18.8139L33.5791 18.8286ZM31.0088 25.6196L31.1103 25.6896L31.1103 25.6896L31.0088 25.6196ZM24.5498 29.7056L24.5498 29.8289H24.5498L24.5498 29.7056ZM21.3389 28.2339L21.2408 28.3086L21.2408 28.3086L21.3389 28.2339ZM20.3643 24.9614L20.241 24.9614V24.9614L20.3643 24.9614ZM23.1045 16.5679L23.0039 16.4966L23.0039 16.4966L23.1045 16.5679ZM16.6738 1.11182L16.6738 0.988514H16.6738L16.6738 1.11182ZM21.3379 2.95459L21.4321 2.87507L21.4321 2.87506L21.3379 2.95459ZM22.8115 8.00537H22.9348V8.00536L22.8115 8.00537ZM22.7217 9.46533L22.599 9.45329L22.5091 10.369L22.8369 9.50926L22.7217 9.46533ZM25.668 1.73877L25.7832 1.78271L25.7842 1.78L25.668 1.73877ZM25.6787 1.7085V1.58519H25.5916L25.5625 1.66726L25.6787 1.7085ZM26.0957 1.7085L26.2112 1.75179L26.2736 1.58519H26.0957V1.7085ZM26.0723 1.771L26.1875 1.81493L26.1877 1.81429L26.0723 1.771ZM22.4893 11.1675L22.6038 11.2133L22.6045 11.2114L22.4893 11.1675ZM22.4775 11.1968V11.3201H22.561L22.592 11.2426L22.4775 11.1968ZM22.1113 11.1968L21.99 11.1747L21.9636 11.3201H22.1113V11.1968ZM22.1211 11.1431L22.2424 11.1651L22.2426 11.1641L22.1211 11.1431ZM22.3994 8.00244H22.5227V8.00244L22.3994 8.00244ZM21.002 3.1499L21.0956 3.06968L21.0956 3.06967L21.002 3.1499ZM16.6719 1.479L16.6719 1.3557L16.6719 1.3557L16.6719 1.479ZM12.1709 2.87354L12.0948 2.7765L12.0948 2.7765L12.1709 2.87354ZM10.1084 7.5249L9.9851 7.5249V7.5249H10.1084ZM11.627 11.4683L11.5294 11.5437L11.5294 11.5437L11.627 11.4683ZM15.1465 14.7749L15.0718 14.873L15.0719 14.8731L15.1465 14.7749ZM15.6172 15.1323L15.6925 15.0347L15.6918 15.0341L15.6172 15.1323ZM19.7041 21.8569H19.8274V21.8569L19.7041 21.8569ZM17.0693 27.7954L17.1476 27.8907L17.1476 27.8907L17.0693 27.7954ZM11.377 29.7075L11.377 29.8308H11.377L11.377 29.7075ZM6.11816 27.6831L6.0296 27.7689L6.02961 27.7689L6.11816 27.6831ZM4.16406 22.2954L4.04076 22.2954V22.2954H4.16406ZM4.26367 20.8296L4.38588 20.846L4.52628 19.8012L4.14856 20.7854L4.26367 20.8296ZM1.18848 28.8423L1.30297 28.8881L1.30359 28.8865L1.18848 28.8423ZM1.17676 28.8716V28.9949H1.26024L1.29124 28.9174L1.17676 28.8716ZM0.759766 28.8716L0.644915 28.8267L0.579225 28.9949H0.759766V28.8716ZM0.78418 28.8091L0.899033 28.8539L0.899322 28.8532L0.78418 28.8091ZM4.56641 18.936L4.45191 18.8902L4.45126 18.8919L4.56641 18.936ZM4.57812 18.9067V18.7834H4.49465L4.46364 18.8609L4.57812 18.9067ZM4.94434 18.9067L5.06572 18.9284L5.09161 18.7834H4.94434V18.9067ZM4.93457 18.9614L5.05577 18.9841L5.05595 18.9831L4.93457 18.9614ZM4.57617 22.2974L4.45287 22.2974V22.2974H4.57617ZM6.40527 27.4058L6.31613 27.491L6.31614 27.491L6.40527 27.4058ZM11.3789 29.3374L11.3789 29.4607H11.3789L11.3789 29.3374ZM16.8086 27.5122L16.8872 27.6072L16.8872 27.6072L16.8086 27.5122ZM19.2949 21.8589H19.4182V21.8589L19.2949 21.8589ZM14.9336 15.0884L15.0091 14.9909L15.009 14.9908L14.9336 15.0884ZM11.332 11.7212L11.2351 11.7975L11.2351 11.7975L11.332 11.7212ZM9.7002 7.52686L9.57689 7.52685V7.52686H9.7002ZM11.8975 2.61963L11.821 2.52287L11.821 2.52287L11.8975 2.61963ZM29.4883 12.9458L29.4883 12.8225H29.4883L29.4883 12.9458ZM24.5469 15.4106L24.4574 15.3258L24.4557 15.3276L24.5469 15.4106ZM24.2686 15.7163L24.1774 15.6333L24.1754 15.6355L24.2686 15.7163ZM20.7764 24.9634H20.6531V24.9634L20.7764 24.9634ZM21.6621 28.0249L21.564 28.0995L21.564 28.0996L21.6621 28.0249ZM24.5518 29.3354L24.5517 29.4588H24.5518L24.5518 29.3354ZM29.7598 26.5776L29.8522 26.6593L29.8831 26.6243V26.5776H29.7598ZM29.7598 26.5767L29.6692 26.493L29.6365 26.5285V26.5767H29.7598ZM29.7715 26.564L29.8621 26.6476L29.8646 26.6448L29.7715 26.564ZM33.2637 17.3188L33.387 17.3189V17.3188H33.2637ZM32.3623 14.2417L32.4599 14.1664L32.4599 14.1664L32.3623 14.2417ZM137.68 10.9614V10.8381V10.9614ZM141.587 11.9604L141.654 11.8571L141.654 11.8571L141.587 11.9604ZM143.231 14.8618H143.355V14.8618L143.231 14.8618ZM143.231 14.9741L143.144 15.0613L143.355 15.2718V14.9741H143.231ZM143.228 14.9702L143.315 14.883L143.113 14.6811L143.104 14.9665L143.228 14.9702ZM142.003 17.5747L142.083 17.6687L142.083 17.6681L142.003 17.5747ZM141.971 17.6021L141.884 17.6892L141.964 17.7696L142.05 17.6961L141.971 17.6021ZM141.94 17.5718L142.028 17.4846L142.027 17.4844L141.94 17.5718ZM141.757 17.3892L141.668 17.4751L141.67 17.4766L141.757 17.3892ZM141.724 17.355L141.639 17.2653L141.548 17.3511L141.635 17.4409L141.724 17.355ZM141.758 17.3228L141.842 17.4125L141.843 17.4121L141.758 17.3228ZM142.846 14.8599L142.969 14.8599V14.8598L142.846 14.8599ZM141.32 12.2056L141.386 12.1014V12.1014L141.32 12.2056ZM137.68 11.3091V11.1858V11.3091ZM130.421 18.8608L130.298 18.8608V18.8608L130.421 18.8608ZM132.218 24.2954L132.124 24.3758L132.124 24.3758L132.218 24.2954ZM137.02 26.4136L137.02 26.5369H137.02V26.4136ZM141.093 25.0522L141.17 25.148L141.17 25.148L141.093 25.0522ZM143.364 21.7456L143.249 21.7007L143.249 21.7018L143.364 21.7456ZM143.382 21.7007L143.43 21.5871L143.313 21.5378L143.267 21.6558L143.382 21.7007ZM143.426 21.7192L143.475 21.6061L143.474 21.6056L143.426 21.7192ZM143.683 21.8306L143.732 21.7177L143.732 21.7174L143.683 21.8306ZM143.723 21.8481L143.839 21.8896L143.877 21.7814L143.772 21.7352L143.723 21.8481ZM143.708 21.8892L143.824 21.9314L143.824 21.9306L143.708 21.8892ZM137.02 26.7651V26.8884V26.7651ZM131.946 24.5562L131.853 24.6373V24.6373L131.946 24.5562ZM130.035 18.8628L129.912 18.8628V18.8628L130.035 18.8628ZM76.2539 12.9448L76.2539 12.8215H76.2539V12.9448ZM70.5059 15.9067L70.4164 15.8219V15.8219L70.5059 15.9067ZM66.9658 22.0708L66.8471 22.0376L66.7912 22.2374L66.9934 22.191L66.9658 22.0708ZM72.2412 20.6323L72.2815 20.7488V20.7488L72.2412 20.6323ZM76.6719 18.3882L76.7489 18.4845L76.7508 18.4829L76.6719 18.3882ZM76.9004 18.1978L76.9794 18.2925L76.9821 18.2901L76.9004 18.1978ZM78.5166 14.9292L78.6399 14.9292V14.9292H78.5166ZM77.9453 13.4565L78.027 13.3642L78.027 13.3642L77.9453 13.4565ZM105.93 4.88916V4.76586L105.93 4.76586L105.93 4.88916ZM106.335 5.29346L106.458 5.29349V5.29338L106.335 5.29346ZM105.93 5.69873L105.93 5.82203H105.93V5.69873ZM105.525 5.29346L105.402 5.29338V5.29349L105.525 5.29346ZM136.962 5.09912V5.22242C144.295 5.22242 149.444 11.0955 149.444 18.0884L149.567 18.0884L149.691 18.0884C149.69 10.9737 144.446 4.97582 136.962 4.97582V5.09912ZM149.567 18.0884H149.444C149.444 22.513 147.915 25.8251 145.623 28.0308L145.709 28.1196L145.794 28.2085C148.139 25.9518 149.691 22.5732 149.691 18.0884H149.567ZM145.709 28.1196L145.623 28.0308C143.33 30.2372 140.268 31.3419 137.195 31.342V31.4653V31.5886C140.326 31.5885 143.451 30.463 145.794 28.2085L145.709 28.1196ZM137.195 31.4653V31.342C129.862 31.3419 124.713 25.4681 124.713 18.4751H124.59H124.467C124.467 25.5899 129.712 31.5885 137.195 31.5886V31.4653ZM124.59 18.4751L124.713 18.4751C124.713 14.0504 126.242 10.7383 128.534 8.5327L128.448 8.44385L128.363 8.355C126.018 10.6117 124.467 13.9902 124.467 18.4751L124.59 18.4751ZM128.448 8.44385L128.534 8.5327C130.827 6.32623 133.889 5.2225 136.962 5.22242V5.09912V4.97582C133.831 4.9759 130.706 6.10039 128.363 8.355L128.448 8.44385ZM136.964 5.46143V5.33812C133.564 5.33819 130.539 6.60162 128.364 8.87821L128.453 8.96338L128.542 9.04855C130.667 6.8238 133.627 5.58479 136.964 5.58473V5.46143ZM128.453 8.96338L128.364 8.87821C126.189 11.1548 124.869 14.4397 124.869 18.4751L124.992 18.4751L125.115 18.4751C125.116 14.4945 126.417 11.2734 128.542 9.04855L128.453 8.96338ZM124.992 18.4751H124.869C124.869 25.2359 129.844 31.2262 137.195 31.2263V31.103V30.9797C129.999 30.9796 125.115 25.1186 125.115 18.4751H124.992ZM137.195 31.103V31.2263C140.595 31.2262 143.621 29.9628 145.795 27.6862L145.706 27.6011L145.617 27.5159C143.492 29.7406 140.533 30.9796 137.195 30.9797V31.103ZM145.706 27.6011L145.795 27.6862C147.97 25.4096 149.289 22.124 149.289 18.0884H149.166H149.043C149.043 22.0691 147.742 25.291 145.617 27.5159L145.706 27.6011ZM149.166 18.0884L149.289 18.0884C149.289 11.2516 144.315 5.33814 136.964 5.33812V5.46143V5.58473C144.161 5.58474 149.042 11.3699 149.043 18.0884L149.166 18.0884ZM111.481 12.5728L111.481 12.6961C112.063 12.6961 112.477 12.8691 112.747 13.1808L112.84 13.1001L112.933 13.0194C112.604 12.6394 112.113 12.4495 111.481 12.4495L111.481 12.5728ZM112.84 13.1001L112.747 13.1808C113.018 13.4946 113.155 13.9616 113.155 14.5689L113.278 14.5688L113.402 14.5688C113.402 13.9296 113.258 13.3951 112.933 13.0194L112.84 13.1001ZM113.278 14.5688L113.155 14.5688C113.155 15.6334 112.795 16.9154 112.09 18.6074L112.204 18.6548L112.318 18.7022C113.026 17.0032 113.402 15.684 113.402 14.5689L113.278 14.5688ZM112.204 18.6548L112.091 18.606L111.768 19.357L111.881 19.4058L111.994 19.4545L112.317 18.7035L112.204 18.6548ZM111.881 19.4058L111.768 19.3564L110.258 22.8125L110.371 22.8618L110.484 22.9112L111.994 19.4551L111.881 19.4058ZM110.371 22.8618L110.479 22.9222C111.499 21.1048 113.039 18.559 114.292 16.5621L114.188 16.4966L114.083 16.431C112.829 18.4297 111.286 20.9792 110.264 22.8015L110.371 22.8618ZM114.188 16.4966L114.292 16.5621C116.159 13.5829 117.613 12.698 119.125 12.698V12.5747V12.4514C117.482 12.4514 115.963 13.4307 114.083 16.4311L114.188 16.4966ZM119.125 12.5747L119.125 12.698C119.847 12.6981 120.413 12.9024 120.797 13.2825L120.884 13.1948L120.97 13.1071C120.528 12.6695 119.893 12.4515 119.125 12.4514L119.125 12.5747ZM120.884 13.1948L120.797 13.2825C121.181 13.6625 121.395 14.2281 121.395 14.9702L121.519 14.9702L121.642 14.9702C121.642 14.181 121.413 13.5452 120.97 13.1072L120.884 13.1948ZM121.519 14.9702L121.395 14.9702C121.395 15.892 120.819 16.8625 119.647 17.4488L119.702 17.5591L119.757 17.6694C120.999 17.0484 121.642 16.0003 121.642 14.9702L121.519 14.9702ZM119.702 17.5591L119.646 17.4493L119.602 17.4718L119.658 17.5815L119.714 17.6913L119.758 17.6689L119.702 17.5591ZM119.658 17.5815L119.771 17.5324L119.752 17.4875L119.639 17.5366L119.526 17.5858L119.545 17.6307L119.658 17.5815ZM119.639 17.5366L119.752 17.4879L119.632 17.2086L119.519 17.2573L119.405 17.306L119.525 17.5853L119.639 17.5366ZM119.519 17.2573L119.632 17.2092L119.605 17.1447L119.491 17.1929L119.378 17.241L119.405 17.3055L119.519 17.2573ZM119.491 17.1929V17.3162H119.551V17.1929V17.0696H119.491V17.1929ZM119.551 17.1929L119.604 17.3039C120.617 16.8146 121.232 15.8372 121.232 14.9702L121.108 14.9702L120.985 14.9702C120.985 15.7295 120.437 16.6277 119.497 17.0819L119.551 17.1929ZM121.108 14.9702L121.232 14.9702C121.232 14.302 121.07 13.7623 120.719 13.3896L120.629 13.4741L120.539 13.5587C120.832 13.8693 120.985 14.3381 120.985 14.9702L121.108 14.9702ZM120.629 13.4741L120.719 13.3895C120.366 13.016 119.835 12.8226 119.125 12.8225L119.125 12.9458L119.125 13.0691C119.792 13.0692 120.248 13.2499 120.539 13.5587L120.629 13.4741ZM119.125 12.9458V12.8225C117.689 12.8225 116.275 13.7301 114.401 16.6795L114.505 16.7456L114.609 16.8117C116.474 13.8768 117.824 13.0691 119.125 13.0691V12.9458ZM114.505 16.7456L114.401 16.6795C113.168 18.6209 109.8 24.0988 108.431 27.0115L108.543 27.064L108.655 27.1164C110.015 24.2201 113.375 18.755 114.609 16.8117L114.505 16.7456ZM108.543 27.064L108.431 27.0134L108.185 27.5583L108.298 27.6089L108.41 27.6595L108.655 27.1145L108.543 27.064ZM108.298 27.6089L108.185 27.56L107.429 29.311L107.542 29.3599L107.655 29.4087L108.411 27.6578L108.298 27.6089ZM107.542 29.3599L107.43 29.3079L107.417 29.3353L107.529 29.3872L107.641 29.4391L107.654 29.4118L107.542 29.3599ZM107.529 29.3872V29.2639H107.11V29.3872V29.5105H107.529V29.3872ZM107.11 29.3872L107.223 29.4368L107.252 29.3724L107.139 29.3228L107.026 29.2732L106.997 29.3376L107.11 29.3872ZM107.139 29.3228L107.252 29.3721L111.632 19.3389L111.519 19.2896L111.406 19.2402L107.026 29.2734L107.139 29.3228ZM111.519 19.2896L111.632 19.3386C112.547 17.2278 112.991 15.6617 112.991 14.5689L112.868 14.5688L112.745 14.5688C112.745 15.6078 112.319 17.1343 111.405 19.2405L111.519 19.2896ZM112.868 14.5688L112.991 14.5688C112.991 13.9836 112.87 13.5441 112.613 13.2505L112.521 13.3315L112.428 13.4126C112.628 13.6421 112.745 14.0114 112.745 14.5689L112.868 14.5688ZM112.521 13.3315L112.613 13.2504C112.355 12.9547 111.972 12.8206 111.481 12.8205L111.481 12.9438L111.481 13.0672C111.928 13.0672 112.231 13.188 112.428 13.4127L112.521 13.3315ZM111.481 12.9438L111.481 12.8205C110.593 12.8206 109.787 13.2975 109.037 14.2843L109.135 14.3589L109.233 14.4335C109.955 13.4837 110.697 13.0672 111.481 13.0672L111.481 12.9438ZM109.135 14.3589L109.037 14.2843C108.287 15.27 107.588 16.7734 106.91 18.846L107.027 18.8843L107.145 18.9226C107.819 16.8592 108.509 15.3866 109.233 14.4335L109.135 14.3589ZM107.027 18.8843L106.91 18.846L106.895 18.8939L107.012 18.9321L107.129 18.9704L107.145 18.9226L107.027 18.8843ZM107.012 18.9321L107.067 18.8218L107.063 18.8199L107.008 18.9302L106.953 19.0405L106.957 19.0424L107.012 18.9321ZM107.008 18.9302L106.892 18.8886C106.293 20.5601 105.307 23.2284 104.177 25.4853L104.287 25.5405L104.397 25.5957C105.535 23.3243 106.525 20.6436 107.124 18.9718L107.008 18.9302ZM104.287 25.5405L104.177 25.4853C103.607 26.6235 103.003 27.6538 102.396 28.3981L102.491 28.4761L102.587 28.554C103.211 27.789 103.824 26.74 104.397 25.5957L104.287 25.5405ZM102.491 28.4761L102.396 28.3981C102.092 28.7701 101.79 29.0683 101.493 29.273L101.563 29.3745L101.634 29.476C101.956 29.2535 102.275 28.9365 102.587 28.554L102.491 28.4761ZM101.563 29.3745L101.493 29.273C101.197 29.4777 100.909 29.5862 100.635 29.5862V29.7095V29.8328C100.975 29.8328 101.311 29.6984 101.634 29.476L101.563 29.3745ZM100.635 29.7095L100.635 29.5862C100.158 29.5861 99.7729 29.4154 99.5057 29.0876L99.4102 29.1655L99.3146 29.2434C99.6347 29.6361 100.094 29.8327 100.635 29.8328L100.635 29.7095ZM99.4102 29.1655L99.5057 29.0876C99.2368 28.7576 99.0794 28.2588 99.0794 27.5923L98.9561 27.5923L98.8328 27.5923C98.8328 28.294 98.9982 28.8551 99.3146 29.2434L99.4102 29.1655ZM98.9561 27.5923L99.0794 27.5923C99.0794 27.0875 99.215 26.5299 99.4278 25.9262L99.3115 25.8853L99.1952 25.8443C98.9788 26.4583 98.8328 27.0466 98.8328 27.5923L98.9561 27.5923ZM99.3115 25.8853L99.4278 25.9262C99.6405 25.3228 99.9282 24.6789 100.228 24.0005L100.115 23.9507L100.002 23.9008C99.704 24.5761 99.4118 25.2298 99.1952 25.8443L99.3115 25.8853ZM100.115 23.9507L100.202 24.0379L100.203 24.0369L100.116 23.9497L100.029 23.8625L100.028 23.8635L100.115 23.9507ZM100.116 23.9497L100.229 24.0003L102.378 19.223L102.266 19.1724L102.153 19.1218L100.004 23.8991L100.116 23.9497ZM102.266 19.1724L102.378 19.2233C103.332 17.1178 103.859 15.8279 103.859 14.6138L103.735 14.6138L103.612 14.6138C103.612 15.7644 103.113 17.0033 102.153 19.1215L102.266 19.1724ZM103.735 14.6138H103.859C103.859 14.0058 103.716 13.5564 103.445 13.2583L103.354 13.3413L103.262 13.4244C103.477 13.6604 103.612 14.0402 103.612 14.6138H103.735ZM103.354 13.3413L103.445 13.2583C103.172 12.9589 102.78 12.8245 102.308 12.8245V12.9478V13.0711C102.733 13.0711 103.05 13.1911 103.262 13.4244L103.354 13.3413ZM102.308 12.9478L102.308 12.8245C101.381 12.8247 100.555 13.3008 99.7941 14.2834L99.8916 14.3589L99.9891 14.4344C100.719 13.4908 101.481 13.0713 102.308 13.0711L102.308 12.9478ZM99.8916 14.3589L99.7941 14.2834C99.0404 15.2572 98.3449 16.7356 97.672 18.7654L97.7891 18.8042L97.9061 18.843C98.576 16.8224 99.2608 15.3753 99.9891 14.4344L99.8916 14.3589ZM97.7891 18.8042L97.7019 18.8914L97.7029 18.8924L97.79 18.8052L97.8772 18.718L97.8763 18.717L97.7891 18.8042ZM97.79 18.8052L97.6734 18.7653L97.6597 18.8054L97.7764 18.8452L97.8931 18.8851L97.9067 18.845L97.79 18.8052ZM97.7764 18.8452L97.6597 18.8054C97.0265 20.6605 96.0509 23.4007 94.9488 25.6573L95.0596 25.7114L95.1704 25.7655C96.2799 23.4938 97.2597 20.7407 97.8931 18.885L97.7764 18.8452ZM95.0596 25.7114L94.9488 25.6573C94.3976 26.7858 93.8162 27.7898 93.2328 28.5014L93.3281 28.5796L93.4235 28.6578C94.0249 27.9243 94.6161 26.9003 95.1704 25.7655L95.0596 25.7114ZM93.3281 28.5796L93.2328 28.5014C92.6453 29.2178 92.073 29.6158 91.5419 29.5825L91.5342 29.7056L91.5265 29.8286C92.1883 29.8701 92.8314 29.3798 93.4235 28.6578L93.3281 28.5796ZM91.5342 29.7056L91.542 29.5825C91.0594 29.5519 90.6728 29.3976 90.4061 29.1015L90.3145 29.1841L90.2228 29.2666C90.5449 29.6241 91.0004 29.7953 91.5264 29.8286L91.5342 29.7056ZM90.3145 29.1841L90.4061 29.1016C90.139 28.8049 89.9817 28.3537 89.9817 27.7085L89.8584 27.7085L89.7351 27.7085C89.7351 28.3915 89.9018 28.9099 90.2228 29.2666L90.3145 29.1841ZM89.8584 27.7085L89.9817 27.7085C89.9818 27.2237 90.1178 26.6357 90.3308 25.9965L90.2139 25.9575L90.0969 25.9185C89.8811 26.5659 89.7352 27.1838 89.7351 27.7085L89.8584 27.7085ZM90.2139 25.9575L90.3308 25.9965C90.5436 25.3582 90.8311 24.6737 91.1303 23.9977L91.0176 23.9478L90.9048 23.8978C90.6049 24.5756 90.3135 25.2687 90.0969 25.9185L90.2139 25.9575ZM91.0176 23.9478V24.0711H91.0186V23.9478V23.8245H91.0176V23.9478ZM91.0186 23.9478L91.1308 23.9987L93.6777 18.3854L93.5654 18.3345L93.4531 18.2835L90.9063 23.8968L91.0186 23.9478ZM93.5654 18.3345L93.6783 18.3842C93.8988 17.8836 94.1293 17.2438 94.3042 16.6238L94.1855 16.5903L94.0669 16.5569C93.8949 17.1665 93.6682 17.7953 93.4526 18.2848L93.5654 18.3345ZM94.1855 16.5903L94.3042 16.6238C94.4787 16.0052 94.5998 15.399 94.5999 14.9702L94.4766 14.9702L94.3533 14.9702C94.3532 15.3639 94.2399 15.9434 94.0669 16.5569L94.1855 16.5903ZM94.4766 14.9702L94.5999 14.9702C94.5998 14.2443 94.4386 13.7048 94.1227 13.3467L94.0303 13.4282L93.9378 13.5098C94.1984 13.8052 94.3532 14.2758 94.3533 14.9702L94.4766 14.9702ZM94.0303 13.4282L94.1227 13.3466C93.8051 12.9868 93.3424 12.8226 92.7705 12.8225L92.7705 12.9458L92.7705 13.0691C93.2952 13.0692 93.6806 13.2184 93.9378 13.5098L94.0303 13.4282ZM92.7705 12.9458V12.8225C91.9276 12.8225 91.0041 13.2942 90.0598 14.0487L90.1367 14.145L90.2137 14.2414C91.1454 13.497 92.0134 13.0691 92.7705 13.0691V12.9458ZM90.1367 14.145L90.0598 14.0487C89.2312 14.7107 88.3773 15.5973 87.5365 16.5959L87.6309 16.6753L87.7252 16.7547C88.5605 15.7626 89.4027 14.8893 90.2137 14.2413L90.1367 14.145ZM87.6309 16.6753L87.5358 16.5967L87.1774 17.0303L87.2725 17.1089L87.3675 17.1874L87.7259 16.7538L87.6309 16.6753ZM87.2725 17.1089L87.1773 17.0304C85.3036 19.3023 83.2288 22.6918 82.7864 23.6561L82.8984 23.7075L83.0105 23.7589C83.4422 22.8179 85.5044 19.4463 87.3676 17.1873L87.2725 17.1089ZM82.8984 23.7075L82.7854 23.6582L80.3177 29.3125L80.4307 29.3618L80.5437 29.4111L83.0114 23.7568L82.8984 23.7075ZM80.4307 29.3618L80.3173 29.3132L80.3056 29.3406L80.4189 29.3892L80.5323 29.4377L80.544 29.4104L80.4307 29.3618ZM80.4189 29.3892V29.2659H80V29.3892V29.5125H80.4189V29.3892ZM80 29.3892L80.1129 29.4388L80.1412 29.3743L80.0283 29.3247L79.9154 29.2751L79.8871 29.3396L80 29.3892ZM80.0283 29.3247L80.1413 29.374L84.5212 19.3408L84.4082 19.2915L84.2952 19.2422L79.9153 29.2754L80.0283 29.3247ZM84.4082 19.2915L84.5213 19.3406C85.4367 17.2305 85.881 15.7438 85.8811 14.6118L85.7578 14.6118L85.6345 14.6118C85.6344 15.6888 85.2094 17.1348 84.2951 19.2424L84.4082 19.2915ZM85.7578 14.6118H85.8811C85.8811 14.0451 85.7591 13.5967 85.5099 13.2891L85.4141 13.3667L85.3183 13.4443C85.5183 13.6912 85.6345 14.0754 85.6345 14.6118H85.7578ZM85.4141 13.3667L85.5098 13.289C85.2582 12.9788 84.8853 12.8227 84.4102 12.8225L84.4102 12.9458L84.4101 13.0691C84.8279 13.0692 85.1232 13.2038 85.3183 13.4444L85.4141 13.3667ZM84.4102 12.9458V12.8225C83.4821 12.8225 82.6978 13.2992 81.9636 14.2863L82.0625 14.3599L82.1614 14.4335C82.8668 13.4851 83.5855 13.0691 84.4102 13.0691V12.9458ZM82.0625 14.3599L81.9636 14.2863C81.2359 15.2646 80.549 16.7534 79.8117 18.8055L79.9277 18.8472L80.0438 18.8889C80.7795 16.841 81.4566 15.3811 82.1614 14.4334L82.0625 14.3599ZM79.9277 18.8472L79.8726 18.9575L79.8745 18.9584L79.9297 18.8481L79.9848 18.7379L79.9829 18.7369L79.9277 18.8472ZM79.9297 18.8481L79.8169 18.7984L79.8022 18.8316L79.915 18.8813L80.0278 18.9311L80.0425 18.8979L79.9297 18.8481ZM79.915 18.8813L79.799 18.8397C79.7951 18.8505 79.7935 18.8597 79.7927 18.8652C79.7923 18.868 79.792 18.8703 79.7919 18.8718C79.7917 18.8732 79.7916 18.8744 79.7916 18.8745C79.7915 18.8757 79.7918 18.8723 79.7924 18.8682C79.793 18.8636 79.7945 18.8554 79.798 18.8456L79.9141 18.8872L80.0301 18.9288C80.034 18.918 80.0356 18.9089 80.0364 18.9034C80.0368 18.9006 80.0371 18.8982 80.0372 18.8967C80.0374 18.8953 80.0375 18.8941 80.0375 18.894C80.0376 18.8928 80.0373 18.8963 80.0367 18.9004C80.0361 18.9049 80.0346 18.9131 80.0311 18.923L79.915 18.8813ZM79.9141 18.8872L79.7981 18.8453L79.7815 18.8912L79.8975 18.9331L80.0134 18.975L80.03 18.9291L79.9141 18.8872ZM79.8975 18.9331L79.9526 18.8228L79.9507 18.8218L79.8955 18.9321L79.8404 19.0424L79.8423 19.0434L79.8975 18.9331ZM79.8955 18.9321L79.7805 18.8877C76.5869 27.1642 73.0135 29.5851 70.084 29.5852L70.084 29.7085L70.084 29.8318C73.177 29.8316 76.8091 27.2734 80.0105 18.9765L79.8955 18.9321ZM70.084 29.7085L70.084 29.5852C68.6092 29.5851 67.6491 29.1139 67.055 28.3367L66.957 28.4116L66.8591 28.4865C67.5109 29.3391 68.5525 29.8317 70.084 29.8318L70.084 29.7085ZM66.957 28.4116L67.055 28.3368C66.458 27.5555 66.2201 26.4512 66.22 25.1645L66.0967 25.1646L65.9734 25.1646C65.9735 26.4741 66.2143 27.6427 66.8591 28.4865L66.957 28.4116ZM66.0967 25.1646H66.22C66.22 22.3789 67.4759 19.2593 69.3639 16.836L69.2666 16.7603L69.1693 16.6845C67.2558 19.1406 65.9734 22.3121 65.9734 25.1646H66.0967ZM69.2666 16.7603L69.3639 16.836C71.2531 14.4113 73.7609 12.7009 76.2539 12.7009V12.5776V12.4543C73.6515 12.4543 71.08 14.2322 69.1693 16.6845L69.2666 16.7603ZM76.2539 12.5776L76.2539 12.7009C77.0389 12.701 77.6762 12.8966 78.1155 13.2693L78.1953 13.1753L78.2751 13.0813C77.7776 12.6592 77.0765 12.4544 76.2539 12.4543L76.2539 12.5776ZM78.1953 13.1753L78.1155 13.2693C78.5529 13.6406 78.8044 14.1959 78.8044 14.9331H78.9277H79.051C79.051 14.1358 78.7764 13.5068 78.2751 13.0813L78.1953 13.1753ZM78.9277 14.9331L78.8044 14.9331C78.8042 16.3005 78.1793 17.4744 77.08 18.3769L77.1582 18.4722L77.2364 18.5675C78.3844 17.625 79.0508 16.3845 79.051 14.9331L78.9277 14.9331ZM77.1582 18.4722L77.0807 18.3762L77.0046 18.4378L77.082 18.5337L77.1595 18.6296L77.2357 18.5681L77.1582 18.4722ZM77.082 18.5337H77.2053V18.5317H77.082H76.9587V18.5337H77.082ZM77.082 18.5317L77.0023 18.4376C75.8056 19.4511 74.1945 20.2155 72.4242 20.8333L72.4648 20.9497L72.5055 21.0661C74.2876 20.4443 75.9314 19.6677 77.1617 18.6258L77.082 18.5317ZM72.4648 20.9497L72.4242 20.8333C70.6263 21.4606 68.6699 21.9353 66.8271 22.3717L66.8555 22.4917L66.8839 22.6117C68.7257 22.1755 70.6938 21.6983 72.5055 21.0661L72.4648 20.9497ZM66.8555 22.4917L66.7361 22.4609C66.5006 23.3731 66.3816 24.2859 66.3816 25.1606H66.5049H66.6282C66.6282 24.308 66.7443 23.4159 66.9749 22.5225L66.8555 22.4917ZM66.5049 25.1606L66.3816 25.1607C66.3816 26.3826 66.6118 27.4574 67.1936 28.2281L67.292 28.1538L67.3904 28.0795C66.8552 27.3704 66.6282 26.3586 66.6282 25.1606L66.5049 25.1606ZM67.292 28.1538L67.1936 28.2281C67.7785 29.0027 68.7095 29.4587 70.082 29.4588L70.082 29.3354L70.082 29.2121C68.7692 29.2121 67.919 28.7795 67.3904 28.0795L67.292 28.1538ZM70.082 29.3354L70.082 29.4588C71.4643 29.4586 73.1353 28.6889 74.8194 26.9746L74.7314 26.8882L74.6435 26.8018C72.986 28.4889 71.3745 29.2121 70.082 29.2121L70.082 29.3354ZM74.7314 26.8882L74.8194 26.9746C76.5047 25.2591 78.21 22.5916 79.6631 18.7798L79.5479 18.7358L79.4326 18.6919C77.9881 22.4813 76.2988 25.1167 74.6435 26.8018L74.7314 26.8882ZM79.5479 18.7358L79.6629 18.7801L79.6727 18.7547L79.5576 18.7104L79.4425 18.6662L79.4328 18.6916L79.5479 18.7358ZM79.5576 18.7104L79.6736 18.7524C80.4396 16.6326 81.1501 15.1174 81.9073 14.1323L81.8096 14.0571L81.7118 13.982C80.9301 14.999 80.2092 16.5446 79.4417 18.6685L79.5576 18.7104ZM81.8096 14.0571L81.9073 14.1323C82.6652 13.1464 83.4644 12.698 84.4102 12.698V12.5747V12.4514C83.367 12.4514 82.502 12.9541 81.7118 13.982L81.8096 14.0571ZM84.4102 12.5747L84.4101 12.698C84.9301 12.6982 85.3349 12.861 85.6106 13.1738L85.7031 13.0923L85.7956 13.0108C85.4627 12.633 84.9835 12.4516 84.4102 12.4514L84.4102 12.5747ZM85.7031 13.0923L85.6106 13.1738C85.8876 13.4885 86.0447 13.9662 86.0447 14.6118H86.168H86.2913C86.2913 13.9297 86.1255 13.3855 85.7957 13.0108L85.7031 13.0923ZM86.168 14.6118H86.0447V14.7231H86.168H86.2913V14.6118H86.168ZM86.168 14.7231L86.2552 14.636L86.2503 14.6311L86.1631 14.7183L86.0759 14.8054L86.0808 14.8103L86.168 14.7231ZM86.1631 14.7183L86.0398 14.7152C86.0155 15.699 85.659 16.9965 85.0053 18.5644L85.1191 18.6118L85.2329 18.6593C85.8904 17.0823 86.2609 15.7511 86.2864 14.7213L86.1631 14.7183ZM85.1191 18.6118L85.0061 18.5627L84.6955 19.2775L84.8086 19.3267L84.9217 19.3758L85.2322 18.6609L85.1191 18.6118ZM84.8086 19.3267L84.6957 19.2771L83.974 20.9226L84.0869 20.9722L84.1998 21.0217L84.9215 19.3762L84.8086 19.3267ZM84.0869 20.9722L84.1918 21.0369C85.292 19.2543 86.1613 18.041 87.0954 16.9284L87.001 16.8491L86.9065 16.7698C85.963 17.8937 85.0867 19.1173 83.982 20.9074L84.0869 20.9722ZM87.001 16.8491L87.0954 16.9284L87.4831 16.4665L87.3887 16.3872L87.2942 16.3079L86.9065 16.7699L87.001 16.8491ZM87.3887 16.3872L87.4825 16.4672C88.3802 15.4144 89.2512 14.5209 90.0857 13.8681L90.0098 13.771L89.9338 13.6739C89.0808 14.3411 88.1976 15.2485 87.2948 16.3072L87.3887 16.3872ZM90.0098 13.771L90.0857 13.8681C91.0409 13.121 91.9401 12.6961 92.7705 12.6961V12.5728V12.4495C91.8585 12.4495 90.9055 12.9139 89.9338 13.6739L90.0098 13.771ZM92.7705 12.5728L92.7705 12.6961C93.4128 12.6962 93.9073 12.8801 94.2418 13.2476L94.333 13.1646L94.4242 13.0816C94.0298 12.6482 93.4598 12.4496 92.7705 12.4495L92.7705 12.5728ZM94.333 13.1646L94.2418 13.2475C94.5774 13.6165 94.7644 14.1828 94.7644 14.9683L94.8877 14.9683L95.011 14.9683C95.011 14.1476 94.8159 13.5122 94.4242 13.0816L94.333 13.1646ZM94.8877 14.9683L94.7644 14.9683C94.7644 15.514 94.6175 16.1726 94.4241 16.8022L94.542 16.8384L94.6599 16.8746C94.8555 16.2375 95.011 15.551 95.011 14.9683L94.8877 14.9683ZM94.542 16.8384L94.4241 16.8022C94.2794 17.2734 94.1095 17.7261 93.958 18.0986L94.0723 18.145L94.1865 18.1915C94.3398 17.8144 94.5124 17.3547 94.6599 16.8746L94.542 16.8384ZM94.0723 18.145L93.9585 18.0975L93.814 18.4432L93.9277 18.4907L94.0415 18.5383L94.186 18.1926L94.0723 18.145ZM93.9277 18.4907L93.8155 18.4398L91.2676 24.053L91.3799 24.104L91.4922 24.155L94.04 18.5417L93.9277 18.4907ZM91.3799 24.104L91.2665 24.0555C90.968 24.7524 90.6877 25.4313 90.4825 26.0516L90.5996 26.0903L90.7167 26.129C90.9182 25.5196 91.1949 24.849 91.4932 24.1526L91.3799 24.104ZM90.5996 26.0903L90.4825 26.0516C90.2778 26.6707 90.1453 27.2376 90.1453 27.7085L90.2686 27.7085L90.3919 27.7085C90.3919 27.2776 90.5144 26.7408 90.7167 26.129L90.5996 26.0903ZM90.2686 27.7085L90.1453 27.7085C90.1453 28.3558 90.2971 28.7963 90.5539 29.0744L90.6445 28.9907L90.7351 28.9071C90.536 28.6914 90.3919 28.3214 90.3919 27.7085L90.2686 27.7085ZM90.6445 28.9907L90.554 29.0744C90.8118 29.3532 91.1645 29.4578 91.5371 29.4578L91.5371 29.3345L91.5371 29.2112C91.2095 29.2112 90.9322 29.1202 90.7351 28.907L90.6445 28.9907ZM91.5371 29.3345L91.5372 29.4578C91.8094 29.4576 92.0862 29.3337 92.3602 29.1238L92.2852 29.0259L92.2102 28.928C91.9588 29.1206 91.734 29.2111 91.537 29.2112L91.5371 29.3345ZM92.2852 29.0259L92.3602 29.1237C92.6349 28.9131 92.9142 28.6101 93.1931 28.2408L93.0947 28.1665L92.9963 28.0922C92.7245 28.452 92.4605 28.736 92.2101 28.928L92.2852 29.0259ZM93.0947 28.1665L93.1931 28.2408C93.7511 27.502 94.3179 26.4838 94.8581 25.3626L94.7471 25.3091L94.636 25.2556C94.0983 26.3715 93.5398 27.3727 92.9963 28.0922L93.0947 28.1665ZM94.7471 25.3091L94.8582 25.3626C95.93 23.1379 96.9049 20.4926 97.5108 18.7789L97.3945 18.7378L97.2783 18.6967C96.6728 20.4093 95.7017 23.0438 94.636 25.2556L94.7471 25.3091ZM97.3945 18.7378L97.5115 18.7768L97.5242 18.7387L97.4072 18.6997L97.2903 18.6607L97.2776 18.6988L97.3945 18.7378ZM97.4072 18.6997L97.5243 18.7384C98.2202 16.6314 98.9436 15.1188 99.7311 14.1341L99.6348 14.0571L99.5385 13.9801C98.7237 14.9989 97.9893 16.5443 97.2901 18.661L97.4072 18.6997ZM99.6348 14.0571L99.7311 14.1341C100.517 13.152 101.362 12.7001 102.308 12.7L102.308 12.5767L102.308 12.4534C101.268 12.4536 100.357 12.9563 99.5385 13.9801L99.6348 14.0571ZM102.308 12.5767V12.7C102.827 12.7 103.254 12.8719 103.55 13.1917L103.641 13.1079L103.731 13.0241C103.38 12.6455 102.883 12.4534 102.308 12.4534V12.5767ZM103.641 13.1079L103.55 13.1917C103.847 13.5123 104.022 13.99 104.022 14.6138H104.146H104.269C104.269 13.9449 104.081 13.4014 103.731 13.0241L103.641 13.1079ZM104.146 14.6138L104.022 14.6138C104.022 15.1983 103.866 15.8756 103.598 16.6537L103.715 16.6938L103.831 16.734C104.102 15.946 104.269 15.2385 104.269 14.6138L104.146 14.6138ZM103.715 16.6938L103.598 16.6537C103.331 17.4314 102.955 18.3051 102.517 19.2801L102.63 19.3306L102.742 19.381C103.18 18.4057 103.56 17.5232 103.831 16.734L103.715 16.6938ZM102.63 19.3306L102.517 19.28L100.367 24.0573L100.479 24.1079L100.592 24.1585L102.742 19.3812L102.63 19.3306ZM100.479 24.1079L100.367 24.0564L100.339 24.1179L100.451 24.1694L100.563 24.221L100.591 24.1595L100.479 24.1079ZM100.451 24.1694L100.538 24.0822L100.536 24.0803L100.449 24.1675L100.362 24.2547L100.364 24.2566L100.451 24.1694ZM100.449 24.1675L100.337 24.1164C99.7168 25.479 99.2431 26.6287 99.2429 27.5903L99.3662 27.5903L99.4895 27.5904C99.4897 26.6921 99.9359 25.5928 100.561 24.2186L100.449 24.1675ZM99.3662 27.5903L99.2429 27.5903C99.2429 28.258 99.395 28.7268 99.6499 29.0292L99.7441 28.9497L99.8384 28.8703C99.6344 28.6282 99.4895 28.2246 99.4895 27.5903L99.3662 27.5903ZM99.7441 28.9497L99.6499 29.0292C99.9062 29.3333 100.258 29.4597 100.635 29.4597L100.635 29.3364L100.635 29.2131C100.316 29.2131 100.039 29.1081 99.8384 28.8702L99.7441 28.9497ZM100.635 29.3364V29.4597C100.907 29.4597 101.187 29.3336 101.465 29.121L101.391 29.0229L101.316 28.9249C101.059 29.1212 100.831 29.2131 100.635 29.2131V29.3364ZM101.391 29.0229L101.465 29.1209C101.745 28.9075 102.031 28.6006 102.318 28.227L102.221 28.1519L102.123 28.0767C101.843 28.4412 101.572 28.7297 101.316 28.9249L101.391 29.0229ZM102.221 28.1519L102.318 28.227C102.893 27.4795 103.482 26.4513 104.043 25.325L103.933 25.27L103.822 25.215C103.264 26.3362 102.683 27.3479 102.123 28.0767L102.221 28.1519ZM103.933 25.27L104.043 25.325C105.166 23.0716 106.186 20.4112 106.773 18.7796L106.657 18.7378L106.541 18.696C105.955 20.3247 104.939 22.9745 103.822 25.215L103.933 25.27ZM106.657 18.7378L106.773 18.7797L106.79 18.7338L106.674 18.6919L106.558 18.65L106.541 18.6959L106.657 18.7378ZM106.674 18.6919L106.791 18.7303C107.462 16.6847 108.171 15.1762 108.944 14.1785L108.847 14.103L108.749 14.0275C107.951 15.0582 107.231 16.5979 106.557 18.6534L106.674 18.6919ZM108.847 14.103L108.944 14.1785C109.721 13.1755 110.557 12.6961 111.481 12.6961V12.5728V12.4495C110.457 12.4495 109.556 12.9862 108.749 14.0275L108.847 14.103ZM29.4883 12.5728L29.4883 12.6961C30.9187 12.6961 31.9307 13.2533 32.5869 14.1041L32.6846 14.0288L32.7822 13.9535C32.0769 13.039 30.991 12.4495 29.4883 12.4495L29.4883 12.5728ZM32.6846 14.0288L32.5869 14.1041C33.2451 14.9577 33.5505 16.1141 33.5505 17.3169H33.6738H33.7971C33.7971 16.0766 33.4827 14.862 32.7822 13.9535L32.6846 14.0288ZM33.6738 17.3169H33.5505V17.3188H33.6738H33.7971V17.3169H33.6738ZM33.6738 17.3188L33.5505 17.3188C33.5505 17.3279 33.5502 17.3375 33.5497 17.3496C33.5493 17.361 33.5487 17.375 33.5486 17.3894L33.6719 17.3901L33.7952 17.3909C33.7952 17.3815 33.7956 17.3718 33.7961 17.3594C33.7966 17.3477 33.7971 17.3335 33.7971 17.3189L33.6738 17.3188ZM33.6719 17.3901L33.787 17.4342C34.3341 16.0044 34.8963 14.9185 35.4975 14.1497L35.4004 14.0737L35.3033 13.9978C34.6806 14.794 34.1079 15.9055 33.5567 17.3461L33.6719 17.3901ZM35.4004 14.0737L35.4975 14.1497C36.2734 13.1575 37.1086 12.697 38.0537 12.697V12.5737V12.4504C37.0121 12.4504 36.1115 12.9643 35.3033 13.9978L35.4004 14.0737ZM38.0537 12.5737L38.0537 12.697C38.5737 12.6971 38.9784 12.86 39.2542 13.1728L39.3467 13.0913L39.4392 13.0098C39.1062 12.6321 38.6272 12.4505 38.0537 12.4504L38.0537 12.5737ZM39.3467 13.0913L39.2541 13.1728C39.5312 13.4875 39.6882 13.9651 39.6882 14.6108H39.8115H39.9348C39.9348 13.9286 39.7691 13.3846 39.4392 13.0098L39.3467 13.0913ZM39.8115 14.6108L39.6882 14.6108C39.6881 15.5321 39.2989 16.6128 38.7716 17.8334L38.8848 17.8823L38.998 17.9312C39.5239 16.7137 39.9347 15.5894 39.9348 14.6108L39.8115 14.6108ZM38.8848 17.8823L38.7718 17.8328L38.5394 18.3631L38.6523 18.4126L38.7653 18.4621L38.9977 17.9318L38.8848 17.8823ZM38.6523 18.4126L38.5404 18.3609L36.1107 23.6177L36.2227 23.6694L36.3346 23.7212L38.7643 18.4643L38.6523 18.4126ZM36.2227 23.6694L36.1098 23.6197C35.6714 24.6152 35.1882 25.9813 35.1882 27.0337H35.3115H35.4348C35.4348 26.037 35.8983 24.7118 36.3355 23.7191L36.2227 23.6694ZM35.3115 27.0337L35.1882 27.0337C35.1884 27.664 35.3613 28.2696 35.7124 28.719L35.8096 28.6431L35.9067 28.5672C35.5969 28.1705 35.435 27.6222 35.4348 27.0337L35.3115 27.0337ZM35.8096 28.6431L35.7124 28.719C36.0654 29.1706 36.5958 29.4597 37.2959 29.4597V29.3364V29.2131C36.6716 29.2131 36.2129 28.9588 35.9067 28.5671L35.8096 28.6431ZM37.2959 29.3364L37.2959 29.4597C38.0555 29.4596 38.818 29.1209 39.571 28.5687L39.498 28.4692L39.4251 28.3698C38.6935 28.9064 37.9819 29.213 37.2959 29.2131L37.2959 29.3364ZM39.498 28.4692L39.571 28.5687C40.3244 28.016 41.0757 27.2443 41.8141 26.367L41.7197 26.2876L41.6254 26.2082C40.8925 27.079 40.1558 27.8338 39.4251 28.3698L39.498 28.4692ZM41.7197 26.2876L41.8139 26.3672C44.4475 23.2535 46.9195 18.5094 47.559 17.0711L47.4463 17.021L47.3336 16.9709C46.699 18.3982 44.2382 23.1191 41.6256 26.208L41.7197 26.2876ZM47.4463 17.021L47.5593 17.0704L49.3503 12.9707L49.2373 12.9214L49.1243 12.872L47.3333 16.9716L47.4463 17.021ZM49.2373 12.9214L49.3512 12.9685L49.363 12.9402L49.249 12.8931L49.1351 12.8459L49.1234 12.8742L49.2373 12.9214ZM49.249 12.8931V13.0164H49.668V12.8931V12.7698H49.249V12.8931ZM49.668 12.8931L49.5551 12.8435L49.5268 12.9079L49.6396 12.9575L49.7525 13.0071L49.7809 12.9427L49.668 12.8931ZM49.6396 12.9575L49.5266 12.9082L45.1468 22.9424L45.2598 22.9917L45.3728 23.041L49.7527 13.0068L49.6396 12.9575ZM45.2598 22.9917L45.1466 22.9426C44.2309 25.0534 43.7879 26.6594 43.7878 27.7114L43.9111 27.7114L44.0344 27.7114C44.0345 26.7129 44.4595 25.1461 45.3729 23.0408L45.2598 22.9917ZM43.9111 27.7114L43.7878 27.7114C43.7879 28.3589 43.9396 28.7992 44.1965 29.0773L44.2871 28.9937L44.3777 28.91C44.1784 28.6944 44.0345 28.3246 44.0344 27.7114L43.9111 27.7114ZM44.2871 28.9937L44.1966 29.0774C44.4545 29.3561 44.8063 29.4597 45.1787 29.4597L45.1787 29.3364L45.1787 29.2131C44.851 29.2131 44.5747 29.1229 44.3776 28.9099L44.2871 28.9937ZM45.1787 29.3364L45.1787 29.4597C46.2141 29.4596 47.2301 28.6457 48.0925 27.4048L47.9912 27.3345L47.89 27.2641C47.0378 28.4902 46.0862 29.213 45.1787 29.2131L45.1787 29.3364ZM47.9912 27.3345L48.0925 27.4048C48.9581 26.1592 49.6844 24.463 50.1381 22.6555L50.0186 22.6255L49.899 22.5955C49.4507 24.3811 48.7349 26.0482 47.89 27.2641L47.9912 27.3345ZM50.0186 22.6255L50.1379 22.6564L50.1516 22.6037L50.0322 22.5728L49.9129 22.5418L49.8992 22.5945L50.0186 22.6255ZM50.0322 22.5728L50.1514 22.6044L52.1446 15.1054L52.0254 15.0737L51.9062 15.0421L49.9131 22.5411L50.0322 22.5728ZM52.0254 15.0737L52.145 15.1036L52.146 15.0997L52.0264 15.0698L51.9067 15.0399L51.9058 15.0438L52.0254 15.0737ZM52.0264 15.0698V15.1931H52.0273V15.0698V14.9465H52.0264V15.0698ZM52.0273 15.0698L52.1432 15.112C52.462 14.2351 52.8999 13.7323 53.3589 13.4481L53.2939 13.3433L53.229 13.2384C52.7143 13.5572 52.2454 14.1092 51.9115 15.0277L52.0273 15.0698ZM53.2939 13.3433L53.3588 13.4481C53.8187 13.1634 54.3083 13.0925 54.7383 13.0925V12.9692V12.8459C54.2822 12.8459 53.7418 12.921 53.229 13.2384L53.2939 13.3433ZM54.7383 12.9692L54.7383 13.0925C55.0866 13.0926 55.3937 13.1505 55.6956 13.2893L55.7471 13.1772L55.7986 13.0652C55.4595 12.9093 55.1163 12.846 54.7383 12.8459L54.7383 12.9692ZM55.7471 13.1772L55.6955 13.2893C55.9983 13.4285 56.3004 13.651 56.6345 13.9851L56.7217 13.8979L56.8089 13.8108C56.4615 13.4633 56.136 13.2204 55.7986 13.0652L55.7471 13.1772ZM56.7217 13.8979L56.6346 13.9853C56.9117 14.2615 57.2039 14.564 57.4862 14.7959L57.5645 14.7007L57.6427 14.6054C57.3723 14.3832 57.0918 14.0928 56.8087 13.8106L56.7217 13.8979ZM57.5645 14.7007L57.4862 14.7959C57.6291 14.9134 57.7705 15.0136 57.9078 15.0849C58.0444 15.1559 58.184 15.2019 58.3213 15.2019V15.0786V14.9553C58.238 14.9553 58.1384 14.9268 58.0214 14.8661C57.9051 14.8056 57.7784 14.7169 57.6427 14.6054L57.5645 14.7007ZM58.3213 15.0786L58.3214 15.2019C58.3793 15.2019 58.435 15.1931 58.4923 15.1684L58.4434 15.0552L58.3945 14.942C58.3737 14.9509 58.3524 14.9553 58.3212 14.9553L58.3213 15.0786ZM58.4434 15.0552L58.4925 15.1682C58.5491 15.1436 58.6042 15.1044 58.6621 15.0516L58.5791 14.9604L58.4961 14.8693C58.4495 14.9118 58.4171 14.9321 58.3942 14.9421L58.4434 15.0552ZM58.5791 14.9604L58.6622 15.0515C58.7771 14.9467 58.9204 14.7719 59.1379 14.4957L59.041 14.4194L58.9441 14.3432C58.7229 14.6241 58.5928 14.7811 58.496 14.8694L58.5791 14.9604ZM59.041 14.4194L59.1373 14.4965C59.7768 13.6974 60.1301 13.225 60.489 12.7866L60.3936 12.7085L60.2981 12.6304C59.9408 13.067 59.5758 13.554 58.9448 14.3424L59.041 14.4194ZM60.3936 12.7085L60.489 12.7866L60.5154 12.7543L60.4199 12.6763L60.3245 12.5982L60.2981 12.6304L60.3936 12.7085ZM60.4199 12.6763L60.3515 12.7789L60.3867 12.8023L60.4551 12.6997L60.5235 12.5971L60.4883 12.5737L60.4199 12.6763ZM60.4551 12.6997L60.3869 12.8024L60.6252 12.9606L60.6934 12.8579L60.7616 12.7552L60.5233 12.597L60.4551 12.6997ZM60.6934 12.8579L60.6233 12.9594L60.6643 12.9877L60.7344 12.8862L60.8044 12.7848L60.7634 12.7564L60.6934 12.8579ZM60.7344 12.8862L60.6369 12.8107L60.6066 12.8498L60.7041 12.9253L60.8016 13.0008L60.8318 12.9618L60.7344 12.8862ZM60.7041 12.9253L60.6064 12.85C59.1372 14.7562 57.0622 17.1116 55.3863 19.8244L55.4912 19.8892L55.5961 19.954C57.2631 17.2555 59.3192 14.924 60.8018 13.0006L60.7041 12.9253ZM55.4912 19.8892L55.3863 19.8244C54.2339 21.6934 53.0653 23.8208 53.0652 25.8755L53.1885 25.8755L53.3118 25.8755C53.3119 23.9001 54.4399 21.8291 55.5962 19.9539L55.4912 19.8892ZM53.1885 25.8755H53.0652C53.0652 26.9098 53.4411 27.8074 54.1301 28.4454L54.2139 28.355L54.2976 28.2645C53.6637 27.6774 53.3118 26.8477 53.3118 25.8755H53.1885ZM54.2139 28.355L54.1301 28.4454C54.8187 29.0831 55.8146 29.4568 57.0439 29.4568V29.3335V29.2102C55.8646 29.2102 54.9325 28.8524 54.2976 28.2645L54.2139 28.355ZM57.0439 29.3335L57.044 29.4568C59.343 29.4566 61.6354 28.1241 63.2382 25.799L63.1367 25.729L63.0352 25.659C61.4678 27.9327 59.2449 29.21 57.0439 29.2102L57.0439 29.3335ZM63.1367 25.729L63.2381 25.7992C65.0378 23.1988 66.1574 19.7208 66.1575 16.7573L66.0342 16.7573L65.9109 16.7573C65.9108 19.6675 64.8083 23.097 63.0353 25.6588L63.1367 25.729ZM66.0342 16.7573L66.1575 16.7573C66.1574 15.074 65.7552 13.8204 65.0674 12.9272L64.9697 13.0024L64.872 13.0777C65.5182 13.9168 65.9108 15.1127 65.9109 16.7573L66.0342 16.7573ZM64.9697 13.0024L65.0672 12.9269L65.0369 12.8878L64.9395 12.9634L64.842 13.0389L64.8723 13.078L64.9697 13.0024ZM64.9395 12.9634L65.0067 13.0667L65.0487 13.0394L64.9814 12.936L64.9142 12.8327L64.8722 12.8601L64.9395 12.9634ZM64.9814 12.936L65.0499 13.0386L65.2882 12.8794L65.2197 12.7769L65.1512 12.6743L64.913 12.8335L64.9814 12.936ZM65.2197 12.7769L65.2868 12.8803L65.323 12.8569L65.2559 12.7534L65.1888 12.65L65.1526 12.6734L65.2197 12.7769ZM65.2559 12.7534L65.1582 12.8287L65.1846 12.8629L65.2822 12.7876L65.3799 12.7123L65.3535 12.6781L65.2559 12.7534ZM65.2822 12.7876L65.1846 12.8629C65.8491 13.7237 66.3239 14.9804 66.324 16.7573L66.4473 16.7573L66.5706 16.7573C66.5705 14.9349 66.0827 13.6228 65.3798 12.7123L65.2822 12.7876ZM66.4473 16.7573L66.324 16.7573C66.3239 19.7648 65.1351 23.335 63.3518 25.9098L63.4531 25.98L63.5545 26.0502C65.3637 23.438 66.5705 19.8195 66.5706 16.7573L66.4473 16.7573ZM63.4531 25.98L63.3519 25.9095C61.8096 28.1238 59.4827 29.5791 57.0459 29.5793L57.0459 29.7026L57.0459 29.8259C59.5826 29.8257 61.9781 28.3135 63.5543 26.0505L63.4531 25.98ZM57.0459 29.7026V29.5793C55.8279 29.5793 54.7912 29.1967 54.0607 28.5443L53.9785 28.6362L53.8964 28.7282C54.6786 29.4268 55.7766 29.8259 57.0459 29.8259V29.7026ZM53.9785 28.6362L54.0607 28.5443C53.3308 27.8923 52.9016 26.967 52.9016 25.8735H52.7783H52.655C52.655 27.0354 53.1128 28.0282 53.8964 28.7282L53.9785 28.6362ZM52.7783 25.8735L52.9016 25.8735C52.9018 23.7891 54.0443 21.7362 55.2399 19.7836L55.1348 19.7192L55.0296 19.6549C53.8385 21.6001 52.6552 23.7098 52.655 25.8735L52.7783 25.8735ZM55.1348 19.7192L55.2398 19.7839C56.176 18.2627 57.3034 16.7787 58.3233 15.5205L58.2275 15.4429L58.1318 15.3652C57.1088 16.6271 55.974 18.1205 55.0298 19.6546L55.1348 19.7192ZM58.2275 15.4429L58.2392 15.3201C57.9545 15.2932 57.6703 15.1295 57.3927 14.9013L57.3145 14.9966L57.2362 15.0918C57.5262 15.3302 57.8574 15.5317 58.2159 15.5656L58.2275 15.4429ZM57.3145 14.9966L57.3927 14.9013C57.0879 14.6508 56.8038 14.3379 56.5413 14.0754L56.4541 14.1626L56.3669 14.2498C56.6175 14.5004 56.9189 14.8311 57.2362 15.0918L57.3145 14.9966ZM56.4541 14.1626L56.5413 14.0754C56.2395 13.7737 55.9637 13.5581 55.6747 13.4187L55.6211 13.5298L55.5675 13.6408C55.8223 13.7637 56.0757 13.9586 56.3669 14.2498L56.4541 14.1626ZM55.6211 13.5298L55.6746 13.4187C55.3845 13.2789 55.0844 13.2171 54.7363 13.217L54.7363 13.3403L54.7363 13.4636C55.0525 13.4637 55.3152 13.5193 55.5676 13.6409L55.6211 13.5298ZM54.7363 13.3403V13.217C54.0831 13.217 53.4879 13.3986 52.9876 13.952L53.0791 14.0347L53.1706 14.1174C53.6138 13.6271 54.1358 13.4636 54.7363 13.4636V13.3403ZM53.0791 14.0347L52.9876 13.952C52.4912 14.5015 52.0947 15.4112 51.8155 16.85L51.9365 16.8735L52.0576 16.897C52.3336 15.4749 52.7187 14.6175 53.1706 14.1173L53.0791 14.0347ZM51.9365 16.8735L51.8195 16.8345L51.8186 16.8375L51.9355 16.8765L52.0525 16.9155L52.0535 16.9125L51.9365 16.8735ZM51.9355 16.8765L51.8163 16.8452L50.2186 22.9497L50.3379 22.981L50.4572 23.0122L52.0548 16.9077L51.9355 16.8765ZM50.3379 22.981L50.2185 22.9503L50.2097 22.9844L50.3291 23.0151L50.4485 23.0458L50.4573 23.0117L50.3379 22.981ZM50.3291 23.0151V22.8918H50.3184V23.0151V23.1384H50.3291V23.0151ZM50.3184 23.0151L50.1994 22.9826C49.7285 24.7054 49.028 26.326 48.1814 27.5302L48.2822 27.6011L48.3831 27.672C49.2506 26.4382 49.9612 24.7894 50.4373 23.0476L50.3184 23.0151ZM48.2822 27.6011L48.1814 27.5302C47.2918 28.7953 46.2567 29.5851 45.1807 29.5852L45.1807 29.7085L45.1807 29.8318C46.3805 29.8317 47.4798 28.9566 48.3831 27.672L48.2822 27.6011ZM45.1807 29.7085L45.1807 29.5852C44.7007 29.5852 44.3157 29.432 44.0497 29.1291L43.957 29.2104L43.8644 29.2918C44.1871 29.6592 44.646 29.8318 45.1807 29.8318L45.1807 29.7085ZM43.957 29.2104L44.0497 29.1291C43.7823 28.8245 43.6253 28.3571 43.6253 27.7114L43.502 27.7114L43.3787 27.7114C43.3787 28.3937 43.5445 28.9274 43.8644 29.2918L43.957 29.2104ZM43.502 27.7114L43.6253 27.7114C43.6253 26.5731 44.0581 25.0728 45.0131 22.9246L44.9004 22.8745L44.7877 22.8244C43.8303 24.9781 43.3787 26.5183 43.3787 27.7114L43.502 27.7114ZM44.9004 22.8745L45.0107 22.9297L45.0117 22.9277L44.9014 22.8726L44.7911 22.8174L44.7901 22.8194L44.9004 22.8745ZM44.9014 22.8726H45.0247V22.8716H44.9014H44.7781V22.8726H44.9014ZM44.9014 22.8716L45.0143 22.9211L45.6852 21.3898L45.5723 21.3403L45.4593 21.2908L44.7884 22.8221L44.9014 22.8716ZM45.5723 21.3403L45.4659 21.278C43.7626 24.1851 42.2609 26.2218 40.9381 27.5492L41.0254 27.6362L41.1127 27.7233C42.4564 26.3751 43.9702 24.3186 45.6787 21.4027L45.5723 21.3403ZM41.0254 27.6362L40.9381 27.5492C39.5101 28.9819 38.3036 29.5812 37.2988 29.5813L37.2988 29.7046L37.2988 29.8279C38.4014 29.8278 39.6679 29.173 41.1127 27.7233L41.0254 27.6362ZM37.2988 29.7046L37.2988 29.5813C36.5661 29.5812 36.0004 29.2824 35.6166 28.8175L35.5215 28.896L35.4264 28.9745C35.8568 29.4959 36.4921 29.8278 37.2988 29.8279L37.2988 29.7046ZM35.5215 28.896L35.6166 28.8175C35.2317 28.351 35.0267 27.7127 35.0266 27.0317L34.9033 27.0317L34.78 27.0318C34.7801 27.7598 34.999 28.4565 35.4264 28.9745L35.5215 28.896ZM34.9033 27.0317H35.0266C35.0266 25.8553 35.4972 24.6324 35.9759 23.5585L35.8633 23.5083L35.7507 23.4581C35.2716 24.5328 34.78 25.7981 34.78 27.0317H34.9033ZM35.8633 23.5083L35.9752 23.5601L38.4049 18.3062L38.293 18.2544L38.1811 18.2026L35.7514 23.4565L35.8633 23.5083ZM38.293 18.2544L38.4051 18.3056C38.7239 17.607 39.004 16.9168 39.2044 16.2859L39.0869 16.2485L38.9694 16.2112C38.773 16.8295 38.4971 17.5099 38.1808 18.2032L38.293 18.2544ZM39.0869 16.2485L39.2044 16.2859C39.4045 15.6561 39.5266 15.08 39.5266 14.6109L39.4033 14.6108L39.28 14.6108C39.28 15.0428 39.1665 15.5908 38.9694 16.2112L39.0869 16.2485ZM39.4033 14.6108H39.5266C39.5266 14.0253 39.4046 13.5768 39.1547 13.2736L39.0596 13.3521L38.9644 13.4305C39.1631 13.6715 39.28 14.0537 39.28 14.6108H39.4033ZM39.0596 13.3521L39.1547 13.2736C38.9024 12.9677 38.5296 12.8216 38.0557 12.8215L38.0557 12.9448L38.0556 13.0681C38.4768 13.0682 38.7708 13.1957 38.9645 13.4305L39.0596 13.3521ZM38.0557 12.9448V12.8215C37.128 12.8215 36.3106 13.3077 35.5599 14.3001L35.6582 14.3745L35.7565 14.4489C36.4781 13.495 37.2302 13.0681 38.0557 13.0681V12.9448ZM35.6582 14.3745L35.5599 14.3001C34.8174 15.2816 34.1335 16.7661 33.4621 18.7898L33.5791 18.8286L33.6961 18.8674C34.3649 16.8519 35.0386 15.3979 35.7565 14.4489L35.6582 14.3745ZM33.5791 18.8286L33.4567 18.8139C33.1733 21.1693 32.2525 23.597 30.9072 25.5497L31.0088 25.6196L31.1103 25.6896C32.4781 23.7042 33.4133 21.2386 33.7015 18.8433L33.5791 18.8286ZM31.0088 25.6196L30.9073 25.5497C29.2722 27.9227 27.0226 29.5822 24.5498 29.5823L24.5498 29.7056L24.5498 29.8289C27.1375 29.8288 29.4524 28.0958 31.1103 25.6896L31.0088 25.6196ZM24.5498 29.7056L24.5498 29.5823C23.1003 29.5822 22.0883 29.0149 21.437 28.1592L21.3389 28.2339L21.2408 28.3086C21.9411 29.2286 23.0272 29.8287 24.5498 29.8289L24.5498 29.7056ZM21.3389 28.2339L21.437 28.1592C20.7835 27.3006 20.4876 26.1442 20.4876 24.9614L20.3643 24.9614L20.241 24.9614C20.241 26.1808 20.5454 27.395 21.2408 28.3086L21.3389 28.2339ZM20.3643 24.9614L20.4876 24.9614C20.4876 22.0521 21.5466 18.9811 23.2051 16.6391L23.1045 16.5679L23.0039 16.4966C21.3182 18.8769 20.241 21.997 20.241 24.9614L20.3643 24.9614ZM23.1045 16.5679L23.2051 16.6391C24.865 14.2956 27.1148 12.6963 29.4883 12.6961L29.4883 12.5728L29.4883 12.4495C27.0018 12.4497 24.6868 14.1204 23.0039 16.4966L23.1045 16.5679ZM16.6738 1.11182L16.6738 1.23512C18.7676 1.23517 20.2666 1.87639 21.2437 3.03411L21.3379 2.95459L21.4321 2.87506C20.3966 1.64806 18.8201 0.988562 16.6738 0.988514L16.6738 1.11182ZM21.3379 2.95459L21.2437 3.03411C22.2226 4.19425 22.6881 5.88552 22.6882 8.00538L22.8115 8.00537L22.9348 8.00536C22.9347 5.85468 22.4631 4.0969 21.4321 2.87507L21.3379 2.95459ZM22.8115 8.00537H22.6882C22.6882 8.50796 22.6564 8.86818 22.599 9.45329L22.7217 9.46533L22.8444 9.47738C22.9019 8.89121 22.9348 8.52082 22.9348 8.00537H22.8115ZM22.7217 9.46533L22.8369 9.50926L25.7832 1.7827L25.668 1.73877L25.5528 1.69484L22.6065 9.4214L22.7217 9.46533ZM25.668 1.73877L25.7842 1.78L25.7949 1.74973L25.6787 1.7085L25.5625 1.66726L25.5518 1.69754L25.668 1.73877ZM25.6787 1.7085V1.8318H26.0957V1.7085V1.58519H25.6787V1.7085ZM26.0957 1.7085L25.9803 1.6652L25.9568 1.7277L26.0723 1.771L26.1877 1.81429L26.2112 1.75179L26.0957 1.7085ZM26.0723 1.771L25.9571 1.72706L22.374 11.1235L22.4893 11.1675L22.6045 11.2114L26.1875 1.81493L26.0723 1.771ZM22.4893 11.1675L22.3748 11.1217L22.3631 11.151L22.4775 11.1968L22.592 11.2426L22.6037 11.2133L22.4893 11.1675ZM22.4775 11.1968V11.0735H22.1113V11.1968V11.3201H22.4775V11.1968ZM22.1113 11.1968L22.2326 11.2188L22.2424 11.1651L22.1211 11.1431L21.9998 11.121L21.99 11.1747L22.1113 11.1968ZM22.1211 11.1431L22.2426 11.1641C22.443 10.0043 22.5227 8.96555 22.5227 8.00537H22.3994H22.2761C22.2761 8.95149 22.1976 9.97617 21.9996 11.1221L22.1211 11.1431ZM22.3994 8.00537H22.5227V8.00244H22.3994H22.2761V8.00537H22.3994ZM22.3994 8.00244L22.5227 8.00244C22.5227 5.86344 22.0631 4.19902 21.0956 3.06968L21.002 3.1499L20.9083 3.23012C21.8221 4.29672 22.2761 5.89309 22.2761 8.00244L22.3994 8.00244ZM21.002 3.1499L21.0956 3.06967C20.1261 1.93832 18.6578 1.35573 16.6719 1.3557L16.6719 1.479L16.6719 1.60231C18.6087 1.60233 19.9988 2.16872 20.9083 3.23013L21.002 3.1499ZM16.6719 1.479L16.6719 1.3557C15.0273 1.35573 13.3562 1.78765 12.0948 2.7765L12.1709 2.87354L12.247 2.97057C13.4536 2.02462 15.0661 1.60233 16.6719 1.60231L16.6719 1.479ZM12.1709 2.87354L12.0948 2.7765C10.8309 3.76752 9.98522 5.31333 9.9851 7.5249L10.1084 7.5249L10.2317 7.52491C10.2318 5.38393 11.0467 3.91174 12.247 2.97057L12.1709 2.87354ZM10.1084 7.5249H9.9851C9.9851 9.00041 10.5922 10.3309 11.5294 11.5437L11.627 11.4683L11.7245 11.3929C10.8085 10.2074 10.2317 8.92874 10.2317 7.5249H10.1084ZM11.627 11.4683L11.5294 11.5437C12.4661 12.7557 13.7363 13.8558 15.0718 14.873L15.1465 14.7749L15.2212 14.6768C13.8914 13.664 12.6415 12.5793 11.7245 11.3929L11.627 11.4683ZM15.1465 14.7749L15.0719 14.8731L15.5426 15.2305L15.6172 15.1323L15.6918 15.0341L15.2211 14.6767L15.1465 14.7749ZM15.6172 15.1323L15.5419 15.23C17.8559 17.0139 19.5805 18.7978 19.5808 21.8569L19.7041 21.8569L19.8274 21.8569C19.8271 18.6765 18.0194 16.8285 15.6925 15.0347L15.6172 15.1323ZM19.7041 21.8569H19.5808C19.5808 24.5012 18.5355 26.4308 16.991 27.7002L17.0693 27.7954L17.1476 27.8907C18.7502 26.5736 19.8274 24.5735 19.8274 21.8569H19.7041ZM17.0693 27.7954L16.9911 27.7001C15.4445 28.9711 13.3923 29.5842 11.3769 29.5842L11.377 29.7075L11.377 29.8308C13.4389 29.8308 15.5495 29.204 17.1476 27.8907L17.0693 27.7954ZM11.377 29.7075L11.377 29.5842C9.20474 29.5842 7.43404 28.8639 6.20672 27.5973L6.11816 27.6831L6.02961 27.7689C7.31029 29.0906 9.14859 29.8308 11.377 29.8308L11.377 29.7075ZM6.11816 27.6831L6.20672 27.5973C4.9792 26.3302 4.28736 24.5088 4.28736 22.2954H4.16406H4.04076C4.04076 24.5605 4.74961 26.4476 6.0296 27.7689L6.11816 27.6831ZM4.16406 22.2954L4.28736 22.2954C4.28738 21.8207 4.31519 21.372 4.38588 20.846L4.26367 20.8296L4.14147 20.8132C4.0693 21.3502 4.04078 21.8098 4.04076 22.2954L4.16406 22.2954ZM4.26367 20.8296L4.14856 20.7854L1.07336 28.7981L1.18848 28.8423L1.30359 28.8865L4.37879 20.8738L4.26367 20.8296ZM1.18848 28.8423L1.07399 28.7965L1.06227 28.8258L1.17676 28.8716L1.29124 28.9174L1.30296 28.8881L1.18848 28.8423ZM1.17676 28.8716V28.7483H0.759766V28.8716V28.9949H1.17676V28.8716ZM0.759766 28.8716L0.874617 28.9164L0.899031 28.8539L0.78418 28.8091L0.669329 28.7642L0.644915 28.8267L0.759766 28.8716ZM0.78418 28.8091L0.899322 28.8532L4.68155 18.9801L4.56641 18.936L4.45126 18.8919L0.669037 28.765L0.78418 28.8091ZM4.56641 18.936L4.68089 18.9818L4.69261 18.9525L4.57812 18.9067L4.46364 18.8609L4.45192 18.8902L4.56641 18.936ZM4.57812 18.9067V19.03H4.94434V18.9067V18.7834H4.57812V18.9067ZM4.94434 18.9067L4.82295 18.8851L4.81319 18.9398L4.93457 18.9614L5.05595 18.9831L5.06572 18.9284L4.94434 18.9067ZM4.93457 18.9614L4.81337 18.9387C4.57426 20.2159 4.4529 21.4947 4.45287 22.2974L4.57617 22.2974L4.69947 22.2974C4.6995 21.5133 4.81875 20.2501 5.05577 18.9841L4.93457 18.9614ZM4.57617 22.2974H4.45287C4.45287 24.443 5.11568 26.2348 6.31613 27.491L6.40527 27.4058L6.49441 27.3206C5.34586 26.1187 4.69947 24.3922 4.69947 22.2974H4.57617ZM6.40527 27.4058L6.31614 27.491C7.51716 28.7475 9.2507 29.4607 11.3789 29.4607L11.3789 29.3374L11.3789 29.2141C9.3077 29.2141 7.64222 28.5215 6.49441 27.3206L6.40527 27.4058ZM11.3789 29.3374L11.3789 29.4607C13.3641 29.4606 15.373 28.8597 16.8872 27.6072L16.8086 27.5122L16.73 27.4172C15.2678 28.6267 13.3176 29.214 11.3789 29.2141L11.3789 29.3374ZM16.8086 27.5122L16.8872 27.6072C18.4034 26.353 19.4182 24.4492 19.4182 21.8589H19.2949H19.1716C19.1716 24.3779 18.188 26.2111 16.73 27.4172L16.8086 27.5122ZM19.2949 21.8589L19.4182 21.8589C19.418 18.5943 17.4764 16.9001 15.0091 14.9909L14.9336 15.0884L14.8581 15.1859C17.3274 17.0965 19.1714 18.7246 19.1716 21.8589L19.2949 21.8589ZM14.9336 15.0884L15.009 14.9908C13.6965 13.9766 12.3982 12.8762 11.4289 11.6449L11.332 11.7212L11.2351 11.7975C12.2241 13.0537 13.5425 14.1693 14.8582 15.1859L14.9336 15.0884ZM11.332 11.7212L11.4289 11.6449C10.4603 10.4144 9.8235 9.05685 9.8235 7.52686H9.7002H9.57689C9.57689 9.12987 10.2452 10.5397 11.2351 11.7975L11.332 11.7212ZM9.7002 7.52686L9.8235 7.52686C9.8236 5.30043 10.6894 3.73108 11.9739 2.71638L11.8975 2.61963L11.821 2.52287C10.4747 3.58647 9.57699 5.22848 9.57689 7.52685L9.7002 7.52686ZM11.8975 2.61963L11.9739 2.71638C13.2609 1.69968 14.9746 1.23515 16.6738 1.23512L16.6738 1.11182L16.6738 0.988514C14.9338 0.988541 13.1618 1.4637 11.821 2.52287L11.8975 2.61963ZM29.4883 12.9458L29.4883 12.8225C27.6314 12.8227 25.8869 13.8173 24.4574 15.3258L24.5469 15.4106L24.6364 15.4955C26.038 14.0163 27.7222 13.0693 29.4883 13.0691L29.4883 12.9458ZM24.5469 15.4106L24.4557 15.3276L24.1774 15.6333L24.2686 15.7163L24.3597 15.7993L24.638 15.4937L24.5469 15.4106ZM24.2686 15.7163L24.1754 15.6355C22.0543 18.0784 20.6531 21.7182 20.6531 24.9634H20.7764H20.8997C20.8997 21.7794 22.2782 18.1967 24.3617 15.7971L24.2686 15.7163ZM20.7764 24.9634L20.6531 24.9634C20.6531 26.1478 20.9339 27.2709 21.564 28.0995L21.6621 28.0249L21.7603 27.9503C21.1729 27.1778 20.8997 26.1134 20.8997 24.9634L20.7764 24.9634ZM21.6621 28.0249L21.564 28.0996C22.1967 28.9313 23.1765 29.4586 24.5517 29.4588L24.5518 29.3354L24.5518 29.2121C23.2474 29.212 22.3427 28.716 21.7602 27.9503L21.6621 28.0249ZM24.5518 29.3354L24.5518 29.4588C26.5273 29.4587 28.3743 28.3327 29.8522 26.6593L29.7598 26.5776L29.6673 26.496C28.2159 28.1395 26.4308 29.2121 24.5518 29.2121L24.5518 29.3354ZM29.7598 26.5776H29.8831V26.5767H29.7598H29.6365V26.5776H29.7598ZM29.7598 26.5767L29.8504 26.6603L29.8621 26.6476L29.7715 26.564L29.6809 26.4803L29.6692 26.493L29.7598 26.5767ZM29.7715 26.564L29.8646 26.6448C31.9857 24.202 33.3868 20.5622 33.387 17.3189L33.2637 17.3188L33.1404 17.3188C33.1402 20.5009 31.7618 24.0838 29.6784 26.4831L29.7715 26.564ZM33.2637 17.3188H33.387C33.387 16.1135 33.0954 14.99 32.4599 14.1664L32.3623 14.2417L32.2647 14.317C32.8569 15.0845 33.1404 16.149 33.1404 17.3188H33.2637ZM32.3623 14.2417L32.4599 14.1664C31.8221 13.34 30.8431 12.8226 29.4883 12.8225L29.4883 12.9458L29.4883 13.0691C30.7728 13.0692 31.6772 13.5559 32.2647 14.317L32.3623 14.2417ZM137.68 10.9614V11.0847C139.174 11.0847 140.535 11.4224 141.52 12.0638L141.587 11.9604L141.654 11.8571C140.619 11.1826 139.207 10.8381 137.68 10.8381V10.9614ZM141.587 11.9604L141.52 12.0638C142.501 12.7034 143.108 13.6441 143.108 14.8618L143.231 14.8618L143.355 14.8618C143.355 13.5483 142.695 12.5351 141.654 11.8571L141.587 11.9604ZM143.231 14.8618H143.108V14.9741H143.231H143.355V14.8618H143.231ZM143.231 14.9741L143.319 14.8869L143.315 14.883L143.228 14.9702L143.14 15.0574L143.144 15.0613L143.231 14.9741ZM143.228 14.9702L143.104 14.9665C143.076 15.901 142.683 16.8251 141.922 17.4813L142.003 17.5747L142.083 17.6681C142.901 16.9632 143.321 15.972 143.351 14.9739L143.228 14.9702ZM142.003 17.5747L141.923 17.4807L141.891 17.508L141.971 17.6021L142.05 17.6961L142.083 17.6687L142.003 17.5747ZM141.971 17.6021L142.058 17.5149L142.028 17.4846L141.94 17.5718L141.853 17.659L141.884 17.6892L141.971 17.6021ZM141.94 17.5718L142.027 17.4844L141.844 17.3017L141.757 17.3892L141.67 17.4766L141.853 17.6592L141.94 17.5718ZM141.757 17.3892L141.845 17.3032L141.812 17.2691L141.724 17.355L141.635 17.4409L141.668 17.4751L141.757 17.3892ZM141.724 17.355L141.808 17.4447L141.842 17.4125L141.758 17.3228L141.673 17.233L141.639 17.2653L141.724 17.355ZM141.758 17.3228L141.843 17.4121C142.629 16.6633 142.969 15.7605 142.969 14.8599L142.846 14.8599L142.722 14.8599C142.722 15.6943 142.409 16.5322 141.673 17.2334L141.758 17.3228ZM142.846 14.8599L142.969 14.8598C142.969 13.6363 142.355 12.7143 141.386 12.1014L141.32 12.2056L141.254 12.3098C142.163 12.8846 142.722 13.7334 142.722 14.8599L142.846 14.8599ZM141.32 12.2056L141.386 12.1014C140.42 11.4902 139.102 11.1858 137.68 11.1858V11.3091V11.4324C139.071 11.4324 140.34 11.7309 141.254 12.3098L141.32 12.2056ZM137.68 11.3091V11.1858C133.636 11.186 130.298 14.3787 130.298 18.8608L130.421 18.8608L130.544 18.8608C130.544 14.5117 133.775 11.4326 137.68 11.4324V11.3091ZM130.421 18.8608L130.298 18.8608C130.298 21.0956 130.954 23.0147 132.124 24.3758L132.218 24.2954L132.311 24.215C131.186 22.907 130.544 21.0486 130.544 18.8608L130.421 18.8608ZM132.218 24.2954L132.124 24.3758C133.296 25.7379 134.979 26.5367 137.02 26.5369L137.02 26.4136L137.02 26.2903C135.048 26.2901 133.434 25.5206 132.311 24.215L132.218 24.2954ZM137.02 26.4136V26.5369C138.743 26.5369 140.11 26.0082 141.17 25.148L141.093 25.0522L141.015 24.9565C140 25.7797 138.688 26.2903 137.02 26.2903V26.4136ZM141.093 25.0522L141.17 25.148C142.23 24.2885 142.981 23.1009 143.48 21.7894L143.364 21.7456L143.249 21.7018C142.761 22.9841 142.032 24.1312 141.015 24.9565L141.093 25.0522ZM143.364 21.7456L143.479 21.7905L143.497 21.7456L143.382 21.7007L143.267 21.6558L143.249 21.7007L143.364 21.7456ZM143.382 21.7007L143.334 21.8143L143.378 21.8328L143.426 21.7192L143.474 21.6056L143.43 21.5871L143.382 21.7007ZM143.426 21.7192L143.377 21.8324L143.634 21.9437L143.683 21.8306L143.732 21.7174L143.475 21.6061L143.426 21.7192ZM143.683 21.8306L143.633 21.9435L143.673 21.961L143.723 21.8481L143.772 21.7352L143.732 21.7177L143.683 21.8306ZM143.723 21.8481L143.607 21.8067L143.592 21.8477L143.708 21.8892L143.824 21.9306L143.839 21.8896L143.723 21.8481ZM143.708 21.8892L143.592 21.8469C142.61 24.5394 140.467 26.6418 137.02 26.6418V26.7651V26.8884C140.593 26.8884 142.814 24.698 143.824 21.9314L143.708 21.8892ZM137.02 26.7651V26.6418C134.949 26.6417 133.235 25.8431 132.039 24.475L131.946 24.5562L131.853 24.6373C133.099 26.0614 134.881 26.8883 137.02 26.8884V26.7651ZM131.946 24.5562L132.039 24.475C130.842 23.1059 130.159 21.1605 130.158 18.8628L130.035 18.8628L129.912 18.8628C129.912 21.2085 130.61 23.2152 131.853 24.6373L131.946 24.5562ZM130.035 18.8628L130.158 18.8628C130.159 14.2796 133.574 11.0849 137.68 11.0847V10.9614V10.8381C133.437 10.8383 129.912 14.1442 129.912 18.8628L130.035 18.8628ZM76.2539 12.9448V12.8215C74.1544 12.8215 72.0957 14.0526 70.4164 15.8219L70.5059 15.9067L70.5953 15.9916C72.2513 14.2469 74.2498 13.0681 76.2539 13.0681V12.9448ZM70.5059 15.9067L70.4164 15.8219C68.7558 17.5716 67.4572 19.8584 66.8471 22.0376L66.9658 22.0708L67.0846 22.104C67.6834 19.9648 68.9614 17.7131 70.5953 15.9916L70.5059 15.9067ZM66.9658 22.0708L66.9934 22.191C68.6272 21.8164 70.5094 21.3623 72.2815 20.7488L72.2412 20.6323L72.2009 20.5158C70.4423 21.1245 68.5714 21.5762 66.9383 21.9506L66.9658 22.0708ZM72.2412 20.6323L72.2815 20.7488C73.9692 20.1646 75.5628 19.4341 76.7489 18.4844L76.6719 18.3882L76.5948 18.2919C75.4409 19.2157 73.878 19.9352 72.2009 20.5158L72.2412 20.6323ZM76.6719 18.3882L76.7508 18.4829L76.9793 18.2925L76.9004 18.1978L76.8215 18.103L76.5929 18.2935L76.6719 18.3882ZM76.9004 18.1978L76.9821 18.2901C78.0293 17.3642 78.6397 16.2686 78.6399 14.9292L78.5166 14.9292L78.3933 14.9292C78.3931 16.1817 77.8265 17.2144 76.8187 18.1054L76.9004 18.1978ZM78.5166 14.9292H78.6399C78.6399 14.2572 78.4355 13.7259 78.027 13.3642L77.9453 13.4565L77.8636 13.5489C78.2062 13.8522 78.3933 14.3084 78.3933 14.9292H78.5166ZM77.9453 13.4565L78.027 13.3642C77.6198 13.004 77.021 12.8216 76.2539 12.8215L76.2539 12.9448L76.2539 13.0681C76.9857 13.0682 77.5172 13.2425 77.8636 13.5489L77.9453 13.4565ZM105.93 4.88916V5.01246C106.087 5.01246 106.212 5.13681 106.212 5.29354L106.335 5.29346L106.458 5.29338C106.458 4.99996 106.223 4.76586 105.93 4.76586V4.88916ZM106.335 5.29346L106.212 5.29342C106.212 5.45053 106.087 5.57543 105.93 5.57543V5.69873V5.82203C106.223 5.82203 106.458 5.58667 106.458 5.29349L106.335 5.29346ZM105.93 5.69873L105.93 5.57543C105.773 5.57527 105.649 5.45066 105.649 5.29342L105.525 5.29346L105.402 5.29349C105.402 5.58627 105.636 5.82174 105.93 5.82203L105.93 5.69873ZM105.525 5.29346L105.649 5.29354C105.649 5.13668 105.773 5.01262 105.93 5.01246L105.93 4.88916L105.93 4.76586C105.637 4.76615 105.402 5.00037 105.402 5.29338L105.525 5.29346Z" fill="black"/>
</svg>
